<svg width="42" height="42" viewBox="0 0 42 42" fill="none" xmlns="http://www.w3.org/2000/svg">
<g id="Ellipse 5">
<mask id="path-1-inside-1_391_1370" fill="white">
<path d="M0.891892 18.8625C2.02828 7.80284 11.9151 -0.241546 22.9747 0.89484C34.0344 2.03123 42.0788 11.9181 40.9424 22.9777C39.806 34.0373 29.9192 42.0817 18.8595 40.9453C7.79989 39.8089 -0.244493 29.9221 0.891892 18.8625ZM35.3007 22.398C36.1169 14.4542 30.3389 7.35275 22.3951 6.53652C14.4512 5.72029 7.34981 11.4983 6.53357 19.4422C5.71734 27.386 11.4954 34.4874 19.4392 35.3036C27.383 36.1199 34.4845 30.3418 35.3007 22.398Z"/>
</mask>
<path d="M0.891892 18.8625C2.02828 7.80284 11.9151 -0.241546 22.9747 0.89484C34.0344 2.03123 42.0788 11.9181 40.9424 22.9777C39.806 34.0373 29.9192 42.0817 18.8595 40.9453C7.79989 39.8089 -0.244493 29.9221 0.891892 18.8625ZM35.3007 22.398C36.1169 14.4542 30.3389 7.35275 22.3951 6.53652C14.4512 5.72029 7.34981 11.4983 6.53357 19.4422C5.71734 27.386 11.4954 34.4874 19.4392 35.3036C27.383 36.1199 34.4845 30.3418 35.3007 22.398Z" fill="#26B6EB" stroke="black" stroke-width="2" mask="url(#path-1-inside-1_391_1370)"/>
</g>
</svg>
