<svg width="42" height="42" viewBox="0 0 42 42" fill="none" xmlns="http://www.w3.org/2000/svg">
<g id="Ellipse 7">
<mask id="path-1-inside-1_391_1372" fill="white">
<path d="M1.05791 18.8625C2.19429 7.80284 12.0811 -0.241546 23.1408 0.89484C34.2004 2.03123 42.2448 11.9181 41.1084 22.9777C39.972 34.0373 30.0852 42.0817 19.0255 40.9453C7.96591 39.8089 -0.0784777 29.9221 1.05791 18.8625ZM35.4667 22.398C36.2829 14.4542 30.5049 7.35275 22.5611 6.53652C14.6172 5.72029 7.51582 11.4983 6.69959 19.4422C5.88335 27.386 11.6614 34.4874 19.6052 35.3036C27.549 36.1199 34.6505 30.3418 35.4667 22.398Z"/>
</mask>
<path d="M1.05791 18.8625C2.19429 7.80284 12.0811 -0.241546 23.1408 0.89484C34.2004 2.03123 42.2448 11.9181 41.1084 22.9777C39.972 34.0373 30.0852 42.0817 19.0255 40.9453C7.96591 39.8089 -0.0784777 29.9221 1.05791 18.8625ZM35.4667 22.398C36.2829 14.4542 30.5049 7.35275 22.5611 6.53652C14.6172 5.72029 7.51582 11.4983 6.69959 19.4422C5.88335 27.386 11.6614 34.4874 19.6052 35.3036C27.549 36.1199 34.6505 30.3418 35.4667 22.398Z" fill="#26B6EB" stroke="black" stroke-width="2" mask="url(#path-1-inside-1_391_1372)"/>
</g>
</svg>
