<svg width="48" height="49" viewBox="0 0 48 49" fill="none" xmlns="http://www.w3.org/2000/svg">
<g id="Group 91">
<path id="Mask Copy 32" fill-rule="evenodd" clip-rule="evenodd" d="M16.9617 4.97237C21.4593 2.28024 27.0731 2.28024 31.5707 4.97238L37.5492 8.55095C41.8402 11.1195 44.4669 15.753 44.4669 20.7541V28.8127C44.4669 33.8137 41.8402 38.4473 37.5492 41.0158L31.5707 44.5943C27.0731 47.2865 21.4593 47.2865 16.9617 44.5943L10.9832 41.0158C6.69216 38.4473 4.06549 33.8137 4.06549 28.8127V20.7541C4.06549 15.753 6.69217 11.1195 10.9832 8.55094L16.9617 4.97237Z" fill="url(#paint0_linear_391_1468)"/>
<mask id="mask0_391_1468" style="mask-type:luminance" maskUnits="userSpaceOnUse" x="4" y="2" width="41" height="45">
<path id="Mask Copy 32_2" fill-rule="evenodd" clip-rule="evenodd" d="M16.9617 4.97237C21.4593 2.28024 27.0731 2.28024 31.5707 4.97238L37.5492 8.55095C41.8402 11.1195 44.4669 15.753 44.4669 20.7541V28.8127C44.4669 33.8137 41.8402 38.4473 37.5492 41.0158L31.5707 44.5943C27.0731 47.2865 21.4593 47.2865 16.9617 44.5943L10.9832 41.0158C6.69216 38.4473 4.06549 33.8137 4.06549 28.8127V20.7541C4.06549 15.753 6.69217 11.1195 10.9832 8.55094L16.9617 4.97237Z" fill="white"/>
</mask>
<g mask="url(#mask0_391_1468)">
</g>
</g>
<defs>
<linearGradient id="paint0_linear_391_1468" x1="0.94043" y1="0.600098" x2="0.94043" y2="48.9666" gradientUnits="userSpaceOnUse">
<stop stop-color="#FDE046"/>
<stop offset="1" stop-color="#F9B800"/>
</linearGradient>
</defs>
</svg>
