<svg width="70" height="69" viewBox="0 0 70 69" fill="none" xmlns="http://www.w3.org/2000/svg">
<g id="Group 1">
<g id="Ellipse 3">
<mask id="path-1-inside-1_391_1620" fill="white">
<path d="M2.73306 36.6872C1.76611 19.0627 15.4356 3.99868 33.2647 3.04067C51.0938 2.08266 66.3311 15.5935 67.298 33.2179C68.265 50.8424 54.5955 65.9064 36.7664 66.8645C18.9372 67.8225 3.70002 54.3116 2.73306 36.6872ZM58.2031 33.7066C57.5086 21.0475 46.5641 11.343 33.758 12.0312C20.9518 12.7193 11.1334 23.5394 11.828 36.1985C12.5225 48.8576 23.467 58.5621 36.2731 57.874C49.0792 57.1859 58.8976 46.3658 58.2031 33.7066Z"/>
</mask>
<path d="M2.73306 36.6872C1.76611 19.0627 15.4356 3.99868 33.2647 3.04067C51.0938 2.08266 66.3311 15.5935 67.298 33.2179C68.265 50.8424 54.5955 65.9064 36.7664 66.8645C18.9372 67.8225 3.70002 54.3116 2.73306 36.6872ZM58.2031 33.7066C57.5086 21.0475 46.5641 11.343 33.758 12.0312C20.9518 12.7193 11.1334 23.5394 11.828 36.1985C12.5225 48.8576 23.467 58.5621 36.2731 57.874C49.0792 57.1859 58.8976 46.3658 58.2031 33.7066Z" fill="#7E57D8" stroke="black" stroke-width="2" mask="url(#path-1-inside-1_391_1620)"/>
</g>
<g id="Ellipse 4">
<mask id="path-2-inside-2_391_1620" fill="white">
<path d="M36.5769 7.60287C36.7207 5.0852 38.8901 3.12573 41.3635 3.6151C46.746 4.68009 51.7918 7.08829 56.005 10.643C61.3817 15.1795 65.1058 21.3333 66.6071 28.1619C68.1083 34.9905 67.304 42.1176 64.3171 48.4518C61.9745 53.42 58.3905 57.6855 53.9351 60.8648C51.8894 62.3246 49.1199 61.449 47.9406 59.2336C46.7442 56.9864 47.6523 54.2235 49.6346 52.6205C52.3061 50.4601 54.4696 47.7223 55.9444 44.5947C58.0778 40.0704 58.6523 34.9797 57.58 30.1022C56.5077 25.2248 53.8477 20.8294 50.0073 17.5891C47.3323 15.3321 44.1873 13.7222 40.8212 12.8581C38.3793 12.2312 36.4331 10.1205 36.5769 7.60287Z"/>
</mask>
<path d="M36.5769 7.60287C36.7207 5.0852 38.8901 3.12573 41.3635 3.6151C46.746 4.68009 51.7918 7.08829 56.005 10.643C61.3817 15.1795 65.1058 21.3333 66.6071 28.1619C68.1083 34.9905 67.304 42.1176 64.3171 48.4518C61.9745 53.42 58.3905 57.6855 53.9351 60.8648C51.8894 62.3246 49.1199 61.449 47.9406 59.2336C46.7442 56.9864 47.6523 54.2235 49.6346 52.6205C52.3061 50.4601 54.4696 47.7223 55.9444 44.5947C58.0778 40.0704 58.6523 34.9797 57.58 30.1022C56.5077 25.2248 53.8477 20.8294 50.0073 17.5891C47.3323 15.3321 44.1873 13.7222 40.8212 12.8581C38.3793 12.2312 36.4331 10.1205 36.5769 7.60287Z" fill="#D7D7D7" stroke="black" stroke-width="2" mask="url(#path-2-inside-2_391_1620)"/>
</g>
</g>
</svg>
