<svg width="47" height="46" viewBox="0 0 47 46" fill="none" xmlns="http://www.w3.org/2000/svg">
<g id="vuesax/linear/profile">
<g id="profile">
<path id="Vector" d="M23.8133 20.8342C23.6174 20.815 23.3824 20.815 23.167 20.8342C18.5062 20.6808 14.8049 16.9433 14.8049 12.3433C14.8049 7.64751 18.6824 3.83334 23.4999 3.83334C28.2978 3.83334 32.1949 7.64751 32.1949 12.3433C32.1754 16.9433 28.4741 20.6808 23.8133 20.8342Z" fill="black" stroke="black" stroke-width="3.70127" stroke-linecap="round" stroke-linejoin="round"/>
<path id="Vector_2" d="M14.0217 27.9067C9.28249 31.0117 9.28249 36.0717 14.0217 39.1575C19.4071 42.6842 28.2392 42.6842 33.6246 39.1575C38.3637 36.0525 38.3637 30.9925 33.6246 27.9067C28.2587 24.3992 19.4267 24.3992 14.0217 27.9067Z" fill="black" stroke="black" stroke-width="3.70127" stroke-linecap="round" stroke-linejoin="round"/>
</g>
</g>
</svg>
