<svg width="47" height="37" viewBox="0 0 47 37" fill="none" xmlns="http://www.w3.org/2000/svg">
<g id="stars">
<g id="Star 3" filter="url(#filter0_d_391_1537)">
<path fill-rule="evenodd" clip-rule="evenodd" d="M33.9168 11.6824L33.4064 11.4815C33.0942 11.3587 32.9409 11.0065 33.064 10.695C33.1258 10.5388 33.2498 10.4151 33.4064 10.3535L33.9168 10.1526C34.5055 9.92096 34.9714 9.45603 35.2036 8.86868L35.4049 8.35936C35.528 8.04786 35.8809 7.89493 36.1931 8.01779C36.3497 8.07941 36.4737 8.2031 36.5355 8.35936L36.7368 8.86868C36.969 9.45603 37.4349 9.92096 38.0236 10.1526L38.534 10.3535C38.8462 10.4763 38.9995 10.8284 38.8764 11.1399C38.8146 11.2962 38.6906 11.4199 38.534 11.4815L38.0236 11.6824C37.4349 11.914 36.969 12.379 36.7368 12.9663L36.5355 13.4756C36.4123 13.7871 36.0594 13.9401 35.7472 13.8172C35.5906 13.7556 35.4667 13.6319 35.4049 13.4756L35.2036 12.9663C34.9714 12.379 34.5055 11.914 33.9168 11.6824Z" fill="white"/>
</g>
<g id="Star 3 Copy 2" filter="url(#filter1_d_391_1537)">
<path fill-rule="evenodd" clip-rule="evenodd" d="M11.9956 28.0995L11.6553 27.9656C11.4471 27.8837 11.345 27.649 11.427 27.4413C11.4682 27.3371 11.5509 27.2547 11.6553 27.2136L11.9956 27.0797C12.388 26.9252 12.6986 26.6153 12.8534 26.2237L12.9876 25.8842C13.0697 25.6765 13.305 25.5746 13.5131 25.6565C13.6175 25.6976 13.7002 25.78 13.7413 25.8842L13.8756 26.2237C14.0303 26.6153 14.341 26.9252 14.7334 27.0797L15.0737 27.2136C15.2818 27.2955 15.384 27.5302 15.3019 27.7379C15.2608 27.8421 15.1781 27.9245 15.0737 27.9656L14.7334 28.0995C14.341 28.254 14.0303 28.5639 13.8756 28.9555L13.7413 29.295C13.6593 29.5027 13.424 29.6047 13.2159 29.5228C13.1115 29.4817 13.0288 29.3992 12.9876 29.295L12.8534 28.9555C12.6986 28.5639 12.388 28.254 11.9956 28.0995Z" fill="white"/>
</g>
<g id="Star 3 Copy" filter="url(#filter2_d_391_1537)">
<path fill-rule="evenodd" clip-rule="evenodd" d="M8.2129 13.026L7.78752 12.8586C7.52736 12.7562 7.39964 12.4628 7.50224 12.2032C7.55372 12.073 7.65702 11.9699 7.78752 11.9186L8.2129 11.7512C8.70345 11.5581 9.09175 11.1707 9.28522 10.6812L9.45299 10.2568C9.55559 9.99723 9.84968 9.86979 10.1098 9.97217C10.2403 10.0235 10.3436 10.1266 10.3951 10.2568L10.5629 10.6812C10.7564 11.1707 11.1447 11.5581 11.6352 11.7512L12.0606 11.9186C12.3207 12.021 12.4485 12.3144 12.3459 12.574C12.2944 12.7042 12.1911 12.8073 12.0606 12.8586L11.6352 13.026C11.1447 13.219 10.7564 13.6065 10.5629 14.0959L10.3951 14.5204C10.2925 14.78 9.99843 14.9074 9.73827 14.805C9.60776 14.7537 9.50446 14.6506 9.45299 14.5204L9.28522 14.0959C9.09175 13.6065 8.70345 13.219 8.2129 13.026Z" fill="white"/>
</g>
<g id="Star 3 Copy 4" filter="url(#filter3_d_391_1537)">
<path fill-rule="evenodd" clip-rule="evenodd" d="M33.4691 27.4817L33.2139 27.3813C33.0578 27.3198 32.9812 27.1438 33.0428 26.988C33.0736 26.9099 33.1356 26.8481 33.2139 26.8172L33.4691 26.7168C33.7635 26.601 33.9965 26.3685 34.1125 26.0748L34.2132 25.8202C34.2748 25.6644 34.4512 25.588 34.6073 25.6494C34.6856 25.6802 34.7476 25.7421 34.7785 25.8202L34.8791 26.0748C34.9952 26.3685 35.2282 26.601 35.5225 26.7168L35.7778 26.8172C35.9339 26.8787 36.0105 27.0547 35.9489 27.2105C35.918 27.2886 35.8561 27.3504 35.7778 27.3813L35.5225 27.4817C35.2282 27.5975 34.9952 27.83 34.8791 28.1237L34.7785 28.3783C34.7169 28.5341 34.5405 28.6105 34.3844 28.5491C34.3061 28.5183 34.2441 28.4564 34.2132 28.3783L34.1125 28.1237C33.9965 27.83 33.7635 27.5975 33.4691 27.4817Z" fill="white"/>
</g>
</g>
<defs>
<filter id="filter0_d_391_1537" x="25.9104" y="0.864231" width="20.1197" height="20.1065" filterUnits="userSpaceOnUse" color-interpolation-filters="sRGB">
<feFlood flood-opacity="0" result="BackgroundImageFix"/>
<feColorMatrix in="SourceAlpha" type="matrix" values="0 0 0 0 0 0 0 0 0 0 0 0 0 0 0 0 0 0 127 0" result="hardAlpha"/>
<feOffset/>
<feGaussianBlur stdDeviation="3.55556"/>
<feColorMatrix type="matrix" values="0 0 0 0 1 0 0 0 0 0.94902 0 0 0 0 0.305882 0 0 0 1 0"/>
<feBlend mode="normal" in2="BackgroundImageFix" result="effect1_dropShadow_391_1537"/>
<feBlend mode="normal" in="SourceGraphic" in2="effect1_dropShadow_391_1537" result="shape"/>
</filter>
<filter id="filter1_d_391_1537" x="4.28757" y="18.5171" width="18.1539" height="18.1451" filterUnits="userSpaceOnUse" color-interpolation-filters="sRGB">
<feFlood flood-opacity="0" result="BackgroundImageFix"/>
<feColorMatrix in="SourceAlpha" type="matrix" values="0 0 0 0 0 0 0 0 0 0 0 0 0 0 0 0 0 0 127 0" result="hardAlpha"/>
<feOffset/>
<feGaussianBlur stdDeviation="3.55556"/>
<feColorMatrix type="matrix" values="0 0 0 0 1 0 0 0 0 0.94902 0 0 0 0 0.305882 0 0 0 1 0"/>
<feBlend mode="normal" in2="BackgroundImageFix" result="effect1_dropShadow_391_1537"/>
<feBlend mode="normal" in="SourceGraphic" in2="effect1_dropShadow_391_1537" result="shape"/>
</filter>
<filter id="filter2_d_391_1537" x="0.355686" y="2.82569" width="19.1368" height="19.1258" filterUnits="userSpaceOnUse" color-interpolation-filters="sRGB">
<feFlood flood-opacity="0" result="BackgroundImageFix"/>
<feColorMatrix in="SourceAlpha" type="matrix" values="0 0 0 0 0 0 0 0 0 0 0 0 0 0 0 0 0 0 127 0" result="hardAlpha"/>
<feOffset/>
<feGaussianBlur stdDeviation="3.55556"/>
<feColorMatrix type="matrix" values="0 0 0 0 1 0 0 0 0 0.94902 0 0 0 0 0.305882 0 0 0 1 0"/>
<feBlend mode="normal" in2="BackgroundImageFix" result="effect1_dropShadow_391_1537"/>
<feBlend mode="normal" in="SourceGraphic" in2="effect1_dropShadow_391_1537" result="shape"/>
</filter>
<filter id="filter3_d_391_1537" x="25.9104" y="18.5171" width="17.171" height="17.1644" filterUnits="userSpaceOnUse" color-interpolation-filters="sRGB">
<feFlood flood-opacity="0" result="BackgroundImageFix"/>
<feColorMatrix in="SourceAlpha" type="matrix" values="0 0 0 0 0 0 0 0 0 0 0 0 0 0 0 0 0 0 127 0" result="hardAlpha"/>
<feOffset/>
<feGaussianBlur stdDeviation="3.55556"/>
<feColorMatrix type="matrix" values="0 0 0 0 1 0 0 0 0 0.94902 0 0 0 0 0.305882 0 0 0 1 0"/>
<feBlend mode="normal" in2="BackgroundImageFix" result="effect1_dropShadow_391_1537"/>
<feBlend mode="normal" in="SourceGraphic" in2="effect1_dropShadow_391_1537" result="shape"/>
</filter>
</defs>
</svg>
