<svg width="21" height="22" viewBox="0 0 21 22" fill="none" xmlns="http://www.w3.org/2000/svg">
<g id="Star 12" filter="url(#filter0_d_391_1492)">
<path fill-rule="evenodd" clip-rule="evenodd" d="M8.75909 11.7799L8.32631 11.5751C8.06162 11.4498 7.93167 11.0908 8.03606 10.7732C8.08843 10.6138 8.19353 10.4877 8.32631 10.4249L8.75909 10.2201C9.25816 9.98387 9.65322 9.5098 9.85006 8.9109L10.0207 8.39157C10.1251 8.07394 10.4243 7.91801 10.689 8.04328C10.8218 8.10612 10.9269 8.23224 10.9793 8.39157L11.1499 8.9109C11.3468 9.5098 11.7418 9.98387 12.2409 10.2201L12.6737 10.4249C12.9384 10.5502 13.0683 10.9092 12.9639 11.2268C12.9116 11.3862 12.8065 11.5123 12.6737 11.5751L12.2409 11.7799C11.7418 12.0161 11.3468 12.4902 11.1499 13.0891L10.9793 13.6084C10.8749 13.9261 10.5757 14.082 10.311 13.9567C10.1782 13.8939 10.0731 13.7678 10.0207 13.6084L9.85006 13.0891C9.65322 12.4902 9.25816 12.0161 8.75909 11.7799Z" fill="white"/>
</g>
<defs>
<filter id="filter0_d_391_1492" x="0.888889" y="0.888889" width="19.2222" height="20.2222" filterUnits="userSpaceOnUse" color-interpolation-filters="sRGB">
<feFlood flood-opacity="0" result="BackgroundImageFix"/>
<feColorMatrix in="SourceAlpha" type="matrix" values="0 0 0 0 0 0 0 0 0 0 0 0 0 0 0 0 0 0 127 0" result="hardAlpha"/>
<feOffset/>
<feGaussianBlur stdDeviation="3.55556"/>
<feColorMatrix type="matrix" values="0 0 0 0 1 0 0 0 0 0.94902 0 0 0 0 0.305882 0 0 0 1 0"/>
<feBlend mode="normal" in2="BackgroundImageFix" result="effect1_dropShadow_391_1492"/>
<feBlend mode="normal" in="SourceGraphic" in2="effect1_dropShadow_391_1492" result="shape"/>
</filter>
</defs>
</svg>
