<svg width="47" height="48" viewBox="0 0 47 48" fill="none" xmlns="http://www.w3.org/2000/svg">
<g id="vuesax/bold/setting-2">
<g id="setting-2">
<path id="Vector" d="M39.3625 18.44C35.8179 18.44 34.3688 15.88 36.1313 12.74C37.1496 10.92 36.5425 8.6 34.7604 7.56L31.3725 5.58C29.8254 4.63999 27.8279 5.2 26.9075 6.78L26.6921 7.15999C24.9296 10.3 22.0313 10.3 20.2492 7.15999L20.0338 6.78C19.1525 5.2 17.155 4.63999 15.6079 5.58L12.22 7.56C10.4379 8.6 9.83084 10.94 10.8492 12.76C12.6313 15.88 11.1821 18.44 7.6375 18.44C5.60084 18.44 3.91667 20.14 3.91667 22.24V25.76C3.91667 27.84 5.58126 29.56 7.6375 29.56C11.1821 29.56 12.6313 32.12 10.8492 35.26C9.83084 37.08 10.4379 39.4 12.22 40.44L15.6079 42.42C17.155 43.36 19.1525 42.8 20.0729 41.22L20.2883 40.84C22.0508 37.7 24.9492 37.7 26.7313 40.84L26.9467 41.22C27.8671 42.8 29.8646 43.36 31.4117 42.42L34.7996 40.44C36.5817 39.4 37.1888 37.06 36.1704 35.26C34.3883 32.12 35.8375 29.56 39.3821 29.56C41.4188 29.56 43.1029 27.86 43.1029 25.76V22.24C43.0833 20.16 41.4188 18.44 39.3625 18.44ZM23.5 30.5C19.9946 30.5 17.1354 27.58 17.1354 24C17.1354 20.42 19.9946 17.5 23.5 17.5C27.0054 17.5 29.8646 20.42 29.8646 24C29.8646 27.58 27.0054 30.5 23.5 30.5Z" fill="black" stroke="black" stroke-width="3.7"/>
</g>
</g>
</svg>
