<svg width="145" height="24" viewBox="0 0 145 24" fill="none" xmlns="http://www.w3.org/2000/svg">
<path id="Rectangle 1 (Stroke)" fill-rule="evenodd" clip-rule="evenodd" d="M134.455 1H10.5455C5.44937 1 1.31818 4.13401 1.31818 8V16C1.31818 19.866 5.44937 23 10.5455 23H134.455C139.551 23 143.682 19.866 143.682 16V8C143.682 4.13401 139.551 1 134.455 1ZM10.5455 0C4.72136 0 0 3.58172 0 8V16C0 20.4183 4.72136 24 10.5455 24H134.455C140.279 24 145 20.4183 145 16V8C145 3.58172 140.279 0 134.455 0H10.5455Z" fill="black"/>
</svg>
