<svg width="17" height="17" viewBox="0 0 17 17" fill="none" xmlns="http://www.w3.org/2000/svg">
<g id="uil:pen">
<path id="Vector" d="M15.5833 5.12833C15.5839 5.03511 15.566 4.9427 15.5308 4.8564C15.4955 4.7701 15.4436 4.69161 15.3779 4.62542L12.3746 1.62208C12.3084 1.55644 12.2299 1.5045 12.1436 1.46925C12.0573 1.434 11.9649 1.41613 11.8717 1.41667C11.7784 1.41613 11.686 1.434 11.5997 1.46925C11.5134 1.5045 11.4349 1.55644 11.3688 1.62208L9.36417 3.62667L1.62208 11.3688C1.55644 11.4349 1.5045 11.5134 1.46925 11.5997C1.434 11.686 1.41613 11.7784 1.41667 11.8717V14.875C1.41667 15.0629 1.4913 15.243 1.62413 15.3759C1.75697 15.5087 1.93714 15.5833 2.125 15.5833H5.12833C5.22745 15.5887 5.32659 15.5732 5.41933 15.5378C5.51207 15.5024 5.59634 15.448 5.66667 15.3779L13.3663 7.63583L15.3779 5.66667C15.4425 5.59793 15.4951 5.51894 15.5338 5.43292C15.5406 5.37646 15.5406 5.31938 15.5338 5.26292C15.5371 5.22995 15.5371 5.19672 15.5338 5.16375L15.5833 5.12833ZM4.83792 14.1667H2.83333V12.1621L9.86709 5.12833L11.8717 7.13292L4.83792 14.1667ZM12.8704 6.13417L10.8658 4.12958L11.8717 3.13083L13.8692 5.12833L12.8704 6.13417Z" fill="black"/>
</g>
</svg>
