<svg width="22" height="21" viewBox="0 0 22 21" fill="none" xmlns="http://www.w3.org/2000/svg">
<g id="search">
<path id="icon" d="M17.9667 18.375L12.1917 12.8625C11.7333 13.2125 11.2063 13.4896 10.6104 13.6938C10.0146 13.8979 9.38056 14 8.70833 14C7.04306 14 5.63368 13.4495 4.48021 12.3484C3.32674 11.2474 2.75 9.90208 2.75 8.3125C2.75 6.72292 3.32674 5.3776 4.48021 4.27656C5.63368 3.17552 7.04306 2.625 8.70833 2.625C10.3736 2.625 11.783 3.17552 12.9365 4.27656C14.0899 5.3776 14.6667 6.72292 14.6667 8.3125C14.6667 8.95417 14.5597 9.55937 14.3458 10.1281C14.1319 10.6969 13.8417 11.2 13.475 11.6375L19.25 17.15L17.9667 18.375ZM8.70833 12.25C9.85417 12.25 10.8281 11.8672 11.6302 11.1016C12.4323 10.3359 12.8333 9.40625 12.8333 8.3125C12.8333 7.21875 12.4323 6.28906 11.6302 5.52344C10.8281 4.75781 9.85417 4.375 8.70833 4.375C7.5625 4.375 6.58854 4.75781 5.78646 5.52344C4.98438 6.28906 4.58333 7.21875 4.58333 8.3125C4.58333 9.40625 4.98438 10.3359 5.78646 11.1016C6.58854 11.8672 7.5625 12.25 8.70833 12.25Z" fill="#79747E"/>
</g>
</svg>
