<svg width="44" height="44" viewBox="0 0 44 44" fill="none" xmlns="http://www.w3.org/2000/svg">
<g id="twemoji:1st-place-medal">
<path id="Vector" d="M22 9.77778L13.4444 0H0L17.1111 20.7778L31.1923 14.9722L22 9.77778Z" fill="#55ACEE"/>
<path id="Vector_2" d="M30.5556 0L22 9.77778L28.5878 18.7147L30.0874 16.8948L44 0H30.5556Z" fill="#3B88C3"/>
<path id="Vector_3" d="M28.3618 19.5873C28.4595 19.3221 28.5219 19.0398 28.5219 18.7403C28.5219 18.092 28.2643 17.4703 27.8059 17.0119C27.3475 16.5534 26.7257 16.2959 26.0774 16.2959H17.9289C17.2806 16.2959 16.6588 16.5534 16.2004 17.0119C15.742 17.4703 15.4844 18.092 15.4844 18.7403C15.4844 19.0398 15.5455 19.3221 15.6445 19.5873C11.6625 21.8191 8.96631 26.0737 8.96631 30.9626C8.96509 38.1627 14.8024 44 22.0025 44C29.2026 44 35.04 38.1627 35.04 30.9626C35.04 26.0737 32.3438 21.8191 28.3618 19.5873Z" fill="#FFAC33"/>
<path id="Vector_4" d="M23.7159 22.7333H21.6125L18.2758 25.3391C18.198 25.4375 18.1504 25.5564 18.1389 25.6813V27.1211C18.1389 27.3484 18.3223 27.5538 18.5508 27.5538H20.7447V37.8376C20.7447 38.0673 20.928 38.2714 21.1786 38.2714H23.7159C23.9432 38.2714 24.1266 38.0661 24.1266 37.8376V23.166C24.1266 22.9387 23.9445 22.7333 23.7159 22.7333Z" fill="#9E5200"/>
</g>
</svg>
