<svg width="44" height="44" viewBox="0 0 44 44" fill="none" xmlns="http://www.w3.org/2000/svg">
<g id="twemoji:2nd-place-medal">
<path id="Vector" d="M22 9.77778L13.4444 0H0L17.1111 20.7778L31.1923 14.9722L22 9.77778Z" fill="#55ACEE"/>
<path id="Vector_2" d="M30.5556 0L22 9.77778L28.5878 18.7147L30.0874 16.8948L44 0H30.5556Z" fill="#3B88C3"/>
<path id="Vector_3" d="M28.3618 19.5873C28.4595 19.3221 28.5219 19.0398 28.5219 18.7403C28.5219 18.092 28.2643 17.4703 27.8059 17.0119C27.3475 16.5534 26.7257 16.2959 26.0774 16.2959H17.9289C17.2806 16.2959 16.6588 16.5534 16.2004 17.0119C15.742 17.4703 15.4844 18.092 15.4844 18.7403C15.4844 19.0398 15.5455 19.3221 15.6445 19.5873C11.6625 21.8191 8.96631 26.0737 8.96631 30.9626C8.96509 38.1627 14.8024 44 22.0025 44C29.2026 44 35.04 38.1627 35.04 30.9626C35.04 26.0737 32.3438 21.8191 28.3618 19.5873Z" fill="#CCD6DD"/>
<path id="Vector_4" d="M26.8914 35.3479H22.5611C23.6342 33.8396 25.5091 31.3952 26.24 30.0911C26.7888 29.0168 27.131 28.3323 27.131 27.1211C27.131 24.5838 25.2121 22.5048 21.9439 22.5048C19.2244 22.5048 17.3728 24.7439 17.3728 24.7439C17.2127 24.9272 17.2359 25.201 17.396 25.3391L18.7905 26.7557C18.8317 26.7991 18.8812 26.8337 18.9362 26.8574C18.9911 26.881 19.0503 26.8932 19.1102 26.8932C19.17 26.8932 19.2292 26.881 19.2841 26.8574C19.3391 26.8337 19.3886 26.7991 19.4298 26.7557C19.8637 26.2753 20.7094 25.6129 21.6457 25.6129C22.9253 25.6129 23.6574 26.389 23.6574 27.258C23.6574 27.8972 23.3604 28.5376 23.0634 28.9948C21.7141 31.0505 18.3322 35.6449 17.0073 37.3816V37.8388C17.0073 38.0685 17.1894 38.2726 17.4412 38.2726H26.8914C27.0051 38.2681 27.1128 38.221 27.1932 38.1406C27.2736 38.0601 27.3208 37.9524 27.3253 37.8388V35.783C27.322 35.6689 27.2752 35.5603 27.1946 35.4795C27.114 35.3986 27.0056 35.3516 26.8914 35.3479Z" fill="#627077"/>
</g>
</svg>
