<svg width="44" height="44" viewBox="0 0 44 44" fill="none" xmlns="http://www.w3.org/2000/svg">
<g id="twemoji:3rd-place-medal">
<path id="Vector" d="M22 9.77778L13.4444 0H0L17.1111 20.7778L31.1923 14.9722L22 9.77778Z" fill="#55ACEE"/>
<path id="Vector_2" d="M30.5556 0L22 9.77778L28.5878 18.7147L30.0874 16.8948L44 0H30.5556Z" fill="#3B88C3"/>
<path id="Vector_3" d="M28.3618 19.5873C28.4595 19.3221 28.5219 19.0398 28.5219 18.7403C28.5219 18.092 28.2643 17.4703 27.8059 17.0119C27.3475 16.5534 26.7257 16.2959 26.0774 16.2959H17.9289C17.2806 16.2959 16.6588 16.5534 16.2004 17.0119C15.742 17.4703 15.4844 18.092 15.4844 18.7403C15.4844 19.0398 15.5455 19.3221 15.6445 19.5873C11.6625 21.8191 8.96631 26.0737 8.96631 30.9626C8.96509 38.1627 14.8024 44 22.0025 44C29.2026 44 35.04 38.1627 35.04 30.9626C35.04 26.0737 32.3438 21.8191 28.3618 19.5873Z" fill="#FF8A3B"/>
<path id="Vector_4" d="M17.2591 35.8722L18.6988 34.4325C18.7707 34.3543 18.8693 34.3061 18.9751 34.2975C19.0809 34.2889 19.1861 34.3205 19.2696 34.386C19.2696 34.386 20.6862 35.4383 21.7825 35.4383C22.7664 35.4383 23.7723 34.6158 23.7723 33.6099C23.7723 32.604 22.7432 31.7595 21.0528 31.7595H20.2718C20.1581 31.7555 20.0502 31.7085 19.9699 31.6279C19.8895 31.5473 19.8428 31.4393 19.8392 31.3256V29.4287C19.8392 29.1769 20.0445 28.9948 20.2718 28.9948H21.0528C22.6527 28.9948 23.4973 28.2187 23.4973 27.236C23.4973 26.2521 22.6527 25.5225 21.6688 25.5225C20.663 25.5225 20.0237 26.048 19.6815 26.4355C19.5202 26.6188 19.2476 26.6188 19.0655 26.4599L17.671 25.0886C17.4864 24.9272 17.5096 24.6547 17.671 24.4946C17.671 24.4946 19.5446 22.4828 22.0343 22.4828C24.6853 22.4828 26.9708 24.1059 26.9708 26.6652C26.9708 28.424 25.6447 29.7269 24.6168 30.206V30.2757C25.6912 30.7328 27.3815 32.1493 27.3815 34.1147C27.3815 36.6056 25.2108 38.4805 22.0563 38.4805C19.1792 38.4805 17.715 37.0627 17.2358 36.4467C17.0977 36.2829 17.1222 36.0311 17.2591 35.8722Z" fill="#7C4119"/>
</g>
</svg>
