<svg width="114" height="107" viewBox="0 0 114 107" fill="none" xmlns="http://www.w3.org/2000/svg">
<g id="Group">
<path id="Vector" d="M113.033 49.1562C109.823 21.4888 86.3411 -3.05176e-05 57.8115 -3.05176e-05H53.153C23.7954 -3.05176e-05 0 23.7954 0 53.153C0 58.1101 1.96919 62.8641 5.47438 66.3693C8.97957 69.8745 13.7336 71.8437 18.6907 71.8437H26.5633C27.0348 77.0092 29.4196 81.812 33.2497 85.3098C37.0798 88.8076 42.0787 90.7479 47.2656 90.75H86.9688C93.9887 90.75 100.721 87.9613 105.685 82.9975C110.649 78.0336 113.438 71.3012 113.438 64.2812V55.6259C113.438 53.4328 113.279 51.2813 113.033 49.1562Z" fill="#FF6DC6"/>
<path id="Vector_2" d="M90.7502 90.3613V103.989C90.7497 104.549 90.5831 105.097 90.2715 105.563C89.9598 106.029 89.5171 106.392 88.9992 106.607C88.4813 106.821 87.9115 106.877 87.3617 106.768C86.8119 106.659 86.3068 106.389 85.9102 105.993L70.3466 90.4293L90.7502 90.3613ZM34.7045 20.6123C34.9095 20.5482 35.0906 20.4243 35.2247 20.2566C35.3587 20.0888 35.4396 19.8848 35.457 19.6708C35.733 16.3811 35.9523 13.0801 35.9221 9.73366C34.8671 12.5847 34.0314 15.4736 33.2449 18.37C26.1184 19.5501 19.635 23.2021 14.9323 28.6853C10.0848 34.2702 7.30557 41.6739 7.77066 48.8356C9.77094 41.9991 13.0493 35.9717 17.6397 31.1204C22.27 26.2529 28.0732 22.6567 34.4928 20.6766L34.7045 20.6123ZM70.6415 11.6243C69.6206 9.48787 67.8169 7.7485 65.6881 6.56875C63.563 5.35875 61.0749 4.78022 58.6096 4.74997C56.1442 4.78778 53.6599 5.36631 51.5349 6.57631C49.4098 7.75228 47.6024 9.49166 46.5776 11.6243C50.771 9.57106 54.6052 8.50475 58.6096 8.53122C62.6139 8.51231 66.4368 9.57484 70.6415 11.6243ZM38.0207 49.2061C36.8695 49.5764 35.7565 50.0563 34.6969 50.6392C34.6668 50.2905 34.6125 49.9443 34.5344 49.6032C34.1283 47.9198 33.2676 46.3802 32.0463 45.1526C29.6225 42.7175 25.7051 41.6172 22.6877 43.1637C25.6182 44.6838 27.6071 46.0337 29.3729 47.8222C30.5792 49.0171 31.5812 50.3329 32.5757 51.9475C31.6304 52.6168 30.7153 53.3353 29.8872 54.1444C27.6374 56.4359 25.8753 59.2302 24.9413 62.2741C23.9847 65.2991 23.7918 68.5472 24.5783 71.5231C26.0984 65.6168 28.6658 60.686 32.5568 56.814C36.4174 52.9155 41.3595 50.3481 47.2658 48.8356C44.29 48.0566 41.0419 48.2495 38.0207 49.2061ZM83.3465 65.9949C81.7584 66.286 79.6447 65.9873 77.5574 65.9571L71.3599 65.8512C68.5946 65.8739 65.8292 65.9432 63.0639 66.0592C64.981 63.9681 65.7675 60.7163 64.2814 58.2887C62.7576 60.7276 61.6157 62.2174 60.175 63.6354C59.1805 64.6374 58.1331 65.5033 56.7681 66.4562C53.3725 66.7398 49.977 67.1255 46.5814 67.7418C54.8434 69.2392 63.1017 69.5757 71.3637 69.6324L72.7099 69.6097C73.6892 70.3395 74.5173 71.0504 75.3038 71.8483C76.7369 73.27 77.8788 74.7598 79.4102 77.1949C80.2005 75.9509 80.348 74.4346 80.053 73.0129C79.8073 71.7008 79.1077 70.5135 78.2191 69.5001L80.6618 69.3942C81.6525 69.3867 83.0213 69.2392 84.1065 68.8422C88.7613 67.4431 91.6501 62.467 90.7578 58.2925C89.9637 62.4405 86.8064 65.4163 83.3465 65.9949ZM107.255 55.88C106.231 52.6055 104.329 49.6069 101.901 47.1378C99.4319 44.714 96.4296 42.812 93.1551 41.7873C91.1569 41.1508 89.0697 40.838 86.9727 40.8609C89.2982 38.4333 91.1321 35.518 92.1266 32.3342C93.1815 29.0823 93.4198 25.5922 92.6408 22.3668C91.1283 28.7685 88.3567 34.1983 84.1065 38.4107C79.8867 42.657 74.4644 45.4211 68.0627 46.9449C71.2881 47.7314 74.782 47.4932 78.0339 46.4345C80.8584 45.5497 83.4562 43.9842 85.7098 42.0218C91.0073 43.6288 95.5978 46.1357 99.2353 49.8036C103.482 54.0234 106.246 59.4458 107.77 65.8474C108.552 62.6258 108.314 59.1319 107.255 55.88Z" fill="#F70A8D"/>
</g>
</svg>
