<svg width="29" height="23" viewBox="0 0 29 23" fill="none" xmlns="http://www.w3.org/2000/svg">
<path id="Icon" d="M21.0575 16.1167C19.1344 17.2025 16.7927 17.8041 14.375 17.8333C6.5 17.8333 2 11.1667 2 11.1667C3.39938 9.23491 5.34028 7.54717 7.6925 6.21667M12.0125 4.7C12.7869 4.56573 13.5797 4.49862 14.375 4.5C22.25 4.5 26.75 11.1667 26.75 11.1667C26.0671 12.113 25.2527 13.0039 24.32 13.825M16.76 12.9333C16.451 13.179 16.0784 13.376 15.6644 13.5126C15.2504 13.6492 14.8035 13.7227 14.3504 13.7286C13.8972 13.7346 13.4471 13.6728 13.0268 13.5471C12.6066 13.4213 12.2248 13.2342 11.9043 12.9968C11.5838 12.7594 11.3312 12.4766 11.1614 12.1653C10.9917 11.854 10.9083 11.5206 10.9163 11.1849C10.9243 10.8492 11.0235 10.5182 11.208 10.2115C11.3924 9.90487 11.6584 9.62887 11.99 9.4M2 2L26.75 20.3333" stroke="#645E5E" stroke-width="4" stroke-linecap="round" stroke-linejoin="round"/>
</svg>
