<svg width="60" height="79" viewBox="0 0 60 79" fill="none" xmlns="http://www.w3.org/2000/svg">
<g id="Group">
<path id="Vector" d="M59.3125 48.7894C59.3125 65.755 45.2672 79.397 28.3015 78.3847C10.8659 77.3445 -1.06846 60.5763 1.17879 43.0489C2.53882 32.3884 7.53673 23.2464 12.9769 16.1542C13.9225 14.9165 14.8931 24.8762 15.8638 23.7804C16.8372 22.654 25.8596 7.04004 28.9969 1.55542C29.1318 1.3135 29.3172 1.10346 29.5405 0.939562C29.7638 0.775662 30.0197 0.661743 30.291 0.605544C30.5622 0.549345 30.8424 0.552182 31.1124 0.613863C31.3824 0.675543 31.636 0.794624 31.856 0.963013C38.1583 5.71895 59.3125 23.5829 59.3125 48.7894Z" fill="#FF6723"/>
<path id="Vector_2" d="M50.9688 55.7731C50.9688 67.0149 41.1815 76.0512 29.2778 75.6424C16.4284 75.2085 7.61741 63.4494 9.5031 51.337C12.2259 33.9709 30.0538 22.8125 30.0538 22.8125C30.0538 22.8125 50.9688 35.9039 50.9688 55.7731Z" fill="#FFB02E"/>
</g>
</svg>
