<svg width="47" height="48" viewBox="0 0 47 48" fill="none" xmlns="http://www.w3.org/2000/svg">
<g id="vuesax/bold/home">
<g id="home">
<path id="Vector" d="M40.7921 16.02L27.965 5.53998C25.4583 3.49998 21.5417 3.47998 19.0546 5.51998L6.22751 16.02C4.38668 17.52 3.27043 20.52 3.66209 22.88L6.12959 37.96C6.69751 41.34 9.77209 44 13.1208 44H33.8792C37.1888 44 40.3221 41.28 40.89 37.94L43.3575 22.86C43.71 20.52 42.5938 17.52 40.7921 16.02ZM24.9688 36C24.9688 36.82 24.3029 37.5 23.5 37.5C22.6971 37.5 22.0313 36.82 22.0313 36V30C22.0313 29.18 22.6971 28.5 23.5 28.5C24.3029 28.5 24.9688 29.18 24.9688 30V36Z" fill="black" stroke="black" stroke-width="3.7"/>
</g>
</g>
</svg>
