<svg width="27" height="23" viewBox="0 0 27 23" fill="none" xmlns="http://www.w3.org/2000/svg">
<path id="Icon" d="M19.6189 16.1167C17.9037 17.2025 15.8152 17.8041 13.6588 17.8333C6.63516 17.8333 2.62164 11.1667 2.62164 11.1667C3.86974 9.23491 5.60081 7.54717 7.69874 6.21667M11.5517 4.7C12.2424 4.56573 12.9495 4.49862 13.6588 4.5C20.6825 4.5 24.696 11.1667 24.696 11.1667C24.0869 12.113 23.3605 13.0039 22.5287 13.825M15.786 12.9333C15.5104 13.179 15.1781 13.376 14.8088 13.5126C14.4396 13.6492 14.041 13.7227 13.6368 13.7286C13.2326 13.7346 12.8312 13.6728 12.4564 13.5471C12.0816 13.4213 11.7411 13.2342 11.4552 12.9968C11.1694 12.7594 10.9441 12.4766 10.7927 12.1653C10.6413 11.854 10.5669 11.5206 10.5741 11.1849C10.5812 10.8492 10.6696 10.5182 10.8342 10.2115C10.9987 9.90487 11.2359 9.62887 11.5316 9.4M2.62164 2L24.696 20.3333" stroke="#645E5E" stroke-width="4" stroke-linecap="round" stroke-linejoin="round"/>
</svg>
