<svg width="34" height="34" viewBox="0 0 34 34" fill="none" xmlns="http://www.w3.org/2000/svg">
<g id="Image [_32Lww]">
<path id="Vector" d="M30.7818 17.3251C30.7818 16.3737 30.6975 15.4706 30.553 14.5916H16.9459V20.0224H24.7369C24.3876 21.8046 23.3641 23.3098 21.8469 24.3333V27.9459H26.4949C29.2164 25.4291 30.7818 21.7203 30.7818 17.3251Z" fill="#4285F4"/>
<path id="Vector_2" d="M16.9459 31.4501C20.8474 31.4501 24.1107 30.1496 26.4949 27.946L21.8469 24.3335C20.5463 25.2005 18.8966 25.7303 16.9459 25.7303C13.1768 25.7303 9.98573 23.1894 8.84171 19.7576H4.04913V23.4784C6.42136 28.1988 11.2983 31.4501 16.9459 31.4501Z" fill="#34A853"/>
<path id="Vector_3" d="M8.84169 19.7576C8.54071 18.8906 8.38415 17.9634 8.38415 17.0001C8.38415 16.0367 8.55269 15.1095 8.84169 14.2425V10.5216H4.04911C3.06168 12.4724 2.49573 14.6639 2.49573 17.0001C2.49573 19.3361 3.06168 21.5277 4.04911 23.4785L8.84169 19.7576Z" fill="#FBBC05"/>
<path id="Vector_4" d="M16.9459 8.26975C19.0772 8.26975 20.9798 9.00433 22.4851 10.4373L26.6033 6.319C24.1107 3.98289 20.8474 2.54993 16.9459 2.54993C11.2983 2.54993 6.42136 5.8012 4.04913 10.5216L8.84171 14.2425C9.98573 10.8106 13.1768 8.26975 16.9459 8.26975Z" fill="#EA4335"/>
</g>
</svg>
