<svg width="45" height="41" viewBox="0 0 45 41" fill="none" xmlns="http://www.w3.org/2000/svg">
<g id="li:search">
<path id="Vector (Stroke)" fill-rule="evenodd" clip-rule="evenodd" d="M20.625 6.83334C13.3763 6.83334 7.5 12.1873 7.5 18.7917C7.5 25.3961 13.3763 30.75 20.625 30.75C27.8737 30.75 33.75 25.3961 33.75 18.7917C33.75 12.1873 27.8737 6.83334 20.625 6.83334ZM3.75 18.7917C3.75 10.3003 11.3052 3.41667 20.625 3.41667C29.9448 3.41667 37.5 10.3003 37.5 18.7917C37.5 27.2831 29.9448 34.1667 20.625 34.1667C11.3052 34.1667 3.75 27.2831 3.75 18.7917Z" fill="black"/>
<path id="Vector (Stroke)_2" fill-rule="evenodd" clip-rule="evenodd" d="M29.8929 27.2358C30.6252 26.5686 31.8123 26.5686 32.5446 27.2358L40.7008 34.667C41.4331 35.3342 41.4331 36.4158 40.7008 37.083C39.9686 37.7501 38.7814 37.7501 38.0492 37.083L29.8929 29.6517C29.1607 28.9846 29.1607 27.9029 29.8929 27.2358Z" fill="black"/>
</g>
</svg>
