<svg width="330" height="231" viewBox="0 0 330 231" fill="none" xmlns="http://www.w3.org/2000/svg">
<mask id="mask0_391_538" style="mask-type:alpha" maskUnits="userSpaceOnUse" x="0" y="0" width="330" height="231">
<path d="M319.909 71.3801C304.762 43.9784 270.906 26.9689 240.334 34.4722C223.679 38.5797 209.104 49.0925 192.303 52.549C178.045 55.4239 163.22 53.0416 150.604 45.8483C132.163 35.2475 120.392 15.3377 101.414 5.7266C75.2591 -7.53755 41.207 3.49461 22.464 25.9341C-21.9221 79.0741 5.12345 155.588 54.4472 194.296C79.4693 213.934 93.8474 220.734 130.021 228.737C160.749 235.566 213.014 225.624 243.095 216.37C273.175 207.115 300.833 188.062 316.653 161.027C332.474 133.992 335.064 98.779 319.909 71.3801Z" fill="#F1F1FA"/>
</mask>
<g mask="url(#mask0_391_538)">
<path d="M244.036 208.156L247.743 209.67L30.4978 269.961C-33.6128 263.151 -156.154 241.56 -133.433 209.67C-105.031 169.809 -73.1422 145.892 1.59821 145.892C91.5475 145.892 103.54 150.789 244.036 208.156Z" fill="#BBBBD6"/>
<path d="M268.877 180.719C307.923 180.719 339.377 189.373 372.458 231.022L266.708 279.702C196.931 272.31 97.7247 280.243 122.454 245.626C153.365 202.355 187.531 180.719 268.877 180.719Z" fill="#BBBBD6" stroke="#F1F1FA" stroke-width="3.98616"/>
<path d="M114.176 114.357C114.176 114.727 114.066 115.088 113.859 115.395C113.653 115.703 113.359 115.942 113.016 116.083C112.673 116.224 112.295 116.261 111.931 116.188C111.567 116.115 111.232 115.936 110.97 115.674C110.708 115.412 110.53 115.079 110.459 114.716C110.387 114.353 110.426 113.977 110.569 113.636C110.713 113.295 110.954 113.004 111.264 112.8C111.574 112.596 111.937 112.488 112.309 112.49C112.555 112.49 112.798 112.538 113.025 112.632C113.253 112.726 113.459 112.863 113.632 113.037C113.806 113.211 113.943 113.416 114.037 113.643C114.13 113.87 114.177 114.112 114.176 114.357V114.357Z" fill="#263238"/>
<path d="M123.147 107.029C124.184 107.029 125.023 106.193 125.023 105.161C125.023 104.13 124.184 103.294 123.147 103.294C122.111 103.294 121.271 104.13 121.271 105.161C121.271 106.193 122.111 107.029 123.147 107.029Z" fill="#263238"/>
<path d="M97.8245 137.377C97.8262 137.747 97.7177 138.109 97.5126 138.417C97.3075 138.725 97.0151 138.966 96.6725 139.109C96.3298 139.251 95.9523 139.29 95.5878 139.219C95.2233 139.148 94.8882 138.97 94.6249 138.71C94.3617 138.449 94.1821 138.116 94.109 137.754C94.0359 137.391 94.0725 137.015 94.2142 136.673C94.356 136.332 94.5964 136.04 94.9051 135.834C95.2138 135.628 95.5769 135.519 95.9484 135.519C96.1943 135.517 96.4381 135.565 96.6656 135.657C96.8932 135.75 97.1001 135.887 97.2744 136.06C97.4487 136.233 97.5871 136.438 97.6815 136.664C97.7759 136.89 97.8245 137.132 97.8245 137.377Z" fill="#263238"/>
<path d="M5.20177 220.005C4.60331 219.839 4.04003 219.566 3.53907 219.2C2.27437 218.405 1.07071 217.517 -0.0619963 216.545C-1.21318 215.599 -2.28655 214.563 -3.27183 213.447C-3.71522 213.009 -4.06857 212.489 -4.31213 211.916C-4.25878 211.916 -3.84089 212.447 -3.04066 213.244C-2.24042 214.04 -1.1023 215.102 0.213638 216.209C1.52958 217.315 2.78328 218.271 3.70799 218.917C4.23121 219.244 4.7304 219.608 5.20177 220.005V220.005Z" fill="#263238"/>
<path d="M9.86074 217.421C9.16745 217.383 8.48813 217.211 7.86015 216.917C6.31896 216.285 4.8806 215.429 3.59223 214.376C2.29821 213.336 1.13136 212.148 0.115648 210.836C-0.338815 210.308 -0.705068 209.71 -0.969116 209.066C-0.915767 209.066 -0.471187 209.668 0.355723 210.615C1.43601 211.847 2.62643 212.978 3.91232 213.996C5.1747 215.025 6.55689 215.898 8.02908 216.598C9.11384 217.164 9.87852 217.35 9.86074 217.421Z" fill="#263238"/>
<path d="M103.631 188.657C103.27 189.345 102.835 189.992 102.333 190.586C100.049 193.558 97.4159 196.247 94.4902 198.596C93.9092 199.112 93.2708 199.561 92.5875 199.932C93.1094 199.379 93.671 198.865 94.268 198.392C95.3349 197.445 96.7842 196.109 98.3136 194.56C99.8429 193.011 101.141 191.516 102.066 190.427C102.543 189.8 103.066 189.208 103.631 188.657V188.657Z" fill="white"/>
<path d="M140.219 140.227L132.315 99.7802C132.138 99.0122 131.668 98.3426 131.005 97.9129C130.341 97.4833 129.536 97.3273 128.759 97.4778C127.982 97.6283 127.294 98.0737 126.841 98.7197C126.388 99.3657 126.205 100.162 126.331 100.94L126.695 102.781L110.344 106.781C108.61 107.204 107.007 108.044 105.675 109.228C104.343 110.411 103.324 111.902 102.706 113.569L92.8452 115.985C91.2043 116.387 89.7909 117.422 88.9155 118.86C88.0402 120.299 87.7746 122.025 88.1771 123.659L89.0663 127.199L79.419 129.571C78.7797 129.728 78.1778 130.009 77.6475 130.397C77.1171 130.786 76.6689 131.274 76.3283 131.835C75.9877 132.396 75.7615 133.018 75.6625 133.666C75.5635 134.314 75.5936 134.975 75.7513 135.611C75.9089 136.248 76.1909 136.847 76.5812 137.375C76.9715 137.903 77.4624 138.349 78.0259 138.688C78.5894 139.027 79.2145 139.252 79.8654 139.351C80.5164 139.449 81.1804 139.419 81.8197 139.262L91.4759 136.899L92.1605 139.669C92.5644 141.303 93.6033 142.71 95.0488 143.581C96.4943 144.452 98.2282 144.717 99.8695 144.316L109.908 141.855V141.776C111.223 142.896 112.787 143.688 114.471 144.086C116.155 144.485 117.91 144.479 119.591 144.068L134.102 140.528L134.271 141.413C134.447 142.181 134.917 142.851 135.581 143.28C136.244 143.71 137.049 143.866 137.826 143.715C138.603 143.565 139.291 143.119 139.744 142.473C140.197 141.827 140.38 141.031 140.255 140.254L140.219 140.227Z" fill="#302EA7"/>
<path d="M140.219 140.227C140.281 140.449 140.308 140.679 140.299 140.908C140.287 141.594 140.043 142.255 139.606 142.785C139.246 143.213 138.777 143.537 138.249 143.724C137.72 143.911 137.151 143.953 136.6 143.847C136.062 143.733 135.563 143.479 135.155 143.11C134.747 142.742 134.445 142.272 134.28 141.749C134.164 141.36 134.111 140.962 134.022 140.554L134.137 140.625L123.467 143.28L120.275 144.077C119.145 144.4 117.975 144.561 116.799 144.555C114.225 144.506 111.748 143.567 109.792 141.9L110.059 141.732V141.802L110.104 141.971H109.935C106.547 142.794 102.999 143.741 99.1848 144.581C98.1674 144.711 97.1336 144.603 96.1658 144.265C95.1979 143.927 94.3227 143.368 93.6098 142.634C92.8703 141.877 92.3298 140.95 92.036 139.935C91.7604 138.926 91.5292 137.917 91.2714 136.899L91.5114 137.05L83.3668 139.094C82.6644 139.245 81.9975 139.457 81.2418 139.572C80.2787 139.689 79.3019 139.536 78.4216 139.13C77.5413 138.724 76.7923 138.081 76.259 137.274C75.7258 136.468 75.4294 135.529 75.4033 134.563C75.3772 133.598 75.6224 132.644 76.1114 131.81C76.5233 131.134 77.0777 130.556 77.7363 130.114C78.3949 129.673 79.1419 129.379 79.9258 129.252L89.0129 127.031L88.8529 127.288C88.675 126.553 88.4883 125.792 88.2927 125.022C88.0624 124.231 87.8988 123.423 87.8037 122.606C87.682 120.919 88.2204 119.251 89.3063 117.95C89.8371 117.311 90.4861 116.78 91.218 116.384C91.9472 116.011 92.7254 115.743 93.5298 115.587L102.652 113.357L102.51 113.49C103.38 111.174 104.997 109.21 107.107 107.905C108.136 107.281 109.259 106.824 110.433 106.551L113.811 105.719L126.651 102.595L126.508 102.816C126.411 102.338 126.322 101.851 126.224 101.373C126.097 100.885 126.064 100.378 126.126 99.8776C126.206 99.3826 126.401 98.9132 126.696 98.5067C126.99 98.1002 127.376 97.768 127.823 97.5367C128.27 97.3053 128.765 97.1812 129.268 97.1743C129.772 97.1673 130.27 97.2778 130.723 97.4968C131.166 97.6985 131.557 97.9989 131.866 98.3749C132.174 98.7508 132.391 99.1923 132.501 99.6651L134.448 109.675C135.658 115.959 136.716 121.446 137.587 125.987C138.459 130.527 139.125 134.067 139.597 136.519C139.819 137.722 139.988 138.652 140.103 139.298C140.157 139.607 140.201 139.838 140.228 140.015C140.236 140.097 140.236 140.18 140.228 140.262C140.198 140.185 140.177 140.105 140.166 140.023C140.166 139.846 140.077 139.616 140.015 139.315L139.437 136.536C138.948 134.094 138.236 130.536 137.329 126.031C136.422 121.526 135.347 116.012 134.102 109.737C133.479 106.598 132.818 103.267 132.119 99.7448C132.021 99.3277 131.829 98.9382 131.558 98.6055C131.287 98.2729 130.944 98.0057 130.554 97.8242C130.152 97.634 129.711 97.5402 129.267 97.5503C128.822 97.5605 128.386 97.6742 127.993 97.8825C127.601 98.0908 127.263 98.3877 127.006 98.7496C126.75 99.1114 126.583 99.5281 126.517 99.966C126.454 100.425 126.485 100.891 126.606 101.338C126.704 101.816 126.802 102.294 126.891 102.781V102.958L126.713 103.002L113.882 106.161C111.668 106.772 109.286 107.046 107.303 108.294C105.264 109.549 103.7 111.442 102.857 113.675L102.813 113.782H102.706L93.5831 116.021C92.8158 116.166 92.0732 116.419 91.3781 116.773C90.6991 117.145 90.096 117.641 89.5998 118.233C88.5831 119.446 88.0793 121.004 88.1949 122.579C88.2863 123.373 88.447 124.158 88.675 124.924C88.8618 125.703 89.0574 126.464 89.2352 127.199L89.2886 127.403L89.0752 127.456L80.0414 129.677C79.3104 129.783 78.6122 130.049 77.9971 130.456C77.3821 130.863 76.8655 131.401 76.4848 132.031C76.0457 132.795 75.8283 133.665 75.8568 134.545C75.8853 135.425 76.1586 136.279 76.6463 137.013C77.134 137.747 77.8168 138.332 78.6188 138.703C79.4208 139.073 80.3103 139.215 81.1884 139.112C81.8641 139.023 82.5755 138.802 83.269 138.643L91.4047 136.66L91.6003 136.616L91.6448 136.802C91.9027 137.82 92.1338 138.846 92.4006 139.829C92.6759 140.783 93.1827 141.655 93.8766 142.369C94.5468 143.061 95.3698 143.589 96.2803 143.91C97.1908 144.231 98.1639 144.337 99.1226 144.219C102.866 143.387 106.476 142.448 109.846 141.643L109.73 141.847V141.776L109.606 141.271L109.997 141.608C111.895 143.227 114.3 144.137 116.799 144.183C117.947 144.193 119.091 144.038 120.195 143.723L123.387 142.953L134.057 140.377H134.155V140.475C134.244 140.882 134.297 141.298 134.404 141.661C134.511 142.018 134.686 142.352 134.92 142.643C135.354 143.169 135.951 143.536 136.618 143.688C137.044 143.775 137.485 143.769 137.909 143.671C138.333 143.573 138.731 143.385 139.075 143.119C139.418 142.853 139.7 142.516 139.901 142.132C140.102 141.747 140.216 141.324 140.237 140.891C140.242 140.669 140.236 140.448 140.219 140.227V140.227Z" fill="#263238"/>
<path d="M134.422 140.439C134.306 140.439 132.403 132.067 130.172 121.694C127.94 111.321 126.215 102.878 126.339 102.851C126.464 102.825 128.358 111.215 130.598 121.597C132.839 131.978 134.546 140.413 134.422 140.439Z" fill="#263238"/>
<path d="M109.873 141.749C109.757 141.749 108.094 135.474 106.085 127.677C104.076 119.88 102.608 113.516 102.724 113.516C102.84 113.516 104.502 119.791 106.512 127.606C108.521 135.421 109.988 141.749 109.873 141.749Z" fill="#263238"/>
<path d="M91.4583 136.899C90.806 135.365 90.3317 133.761 90.0445 132.12C89.6189 130.513 89.2923 128.881 89.0665 127.234C89.714 128.773 90.1853 130.379 90.4713 132.023C90.8975 133.627 91.227 135.256 91.4583 136.899V136.899Z" fill="#263238"/>
<path d="M100.225 115.897C100.225 115.959 99.2741 116.101 97.7447 116.419C96.9801 116.578 96.0731 116.782 95.0773 117.056C94.006 117.33 92.9727 117.734 92.0008 118.26C91.0137 118.706 90.2347 119.51 89.8224 120.508C89.6226 121.38 89.6045 122.284 89.7691 123.163C89.9647 124.694 90.2225 125.633 90.1603 125.65C89.7988 124.878 89.5617 124.053 89.4578 123.207C89.2555 122.286 89.2555 121.332 89.4578 120.411C89.6165 119.853 89.9237 119.348 90.347 118.95C90.7817 118.535 91.2689 118.178 91.7963 117.888C92.7967 117.339 93.8676 116.928 94.9795 116.667C95.9931 116.41 96.9178 116.242 97.6469 116.118C98.4928 115.931 99.3599 115.857 100.225 115.897Z" fill="white"/>
<path d="M123.61 105.161C123.343 105.29 123.059 105.376 122.765 105.418C122.223 105.551 121.423 105.737 120.436 105.949L112.736 107.56C111.34 107.849 109.989 108.319 108.717 108.958C107.686 109.492 106.777 110.233 106.049 111.135C105.399 111.988 104.946 112.973 104.725 114.021C104.678 113.725 104.7 113.422 104.787 113.136C104.982 112.345 105.336 111.601 105.827 110.95C106.55 109.984 107.475 109.187 108.539 108.613C109.833 107.927 111.22 107.429 112.656 107.135C115.679 106.489 118.409 106.011 120.4 105.648C121.387 105.471 122.179 105.338 122.757 105.25C123.037 105.189 123.323 105.16 123.61 105.161V105.161Z" fill="white"/>
<path d="M87.3768 129.438C86.8613 129.787 86.2757 130.019 85.6608 130.12C84.5493 130.421 82.9933 130.545 81.3128 130.899C80.5366 131.056 79.7857 131.318 79.0811 131.677C78.5121 131.972 77.9979 132.361 77.5606 132.828C77.1831 133.293 76.858 133.797 76.5914 134.333C76.6305 133.699 76.8881 133.099 77.3205 132.633C77.7525 132.1 78.2838 131.656 78.8854 131.323C79.611 130.91 80.397 130.611 81.215 130.438C82.9311 130.076 84.496 130.005 85.5896 129.783C86.6833 129.562 87.3502 129.359 87.3768 129.438Z" fill="white"/>
<path d="M130.27 98.2757C130.27 98.3465 129.941 98.3376 129.47 98.4615C128.869 98.6237 128.329 98.9557 127.914 99.4174C127.514 99.8976 127.269 100.487 127.211 101.108C127.158 101.586 127.211 101.904 127.149 101.913C127.087 101.922 126.927 101.639 126.9 101.099C126.87 100.383 127.111 99.6816 127.576 99.1342C128.048 98.5957 128.703 98.2492 129.416 98.1606C129.959 98.0987 130.279 98.2226 130.27 98.2757Z" fill="white"/>
<path d="M407.61 226.634H407.609C405.852 226.639 404.104 226.389 402.421 225.89C394.024 223.387 390.078 219.134 388.299 214.32C386.518 209.5 386.898 204.09 387.24 199.216L387.243 199.173C387.572 194.637 387.748 190.897 386.883 187.939C386.449 186.454 385.752 185.161 384.68 184.061C383.609 182.961 382.171 182.062 380.267 181.35L380.267 181.35C375.253 179.48 371.685 179.444 368.58 180.587C365.5 181.721 362.898 184.01 359.81 186.728L359.784 186.751L359.909 186.893L359.784 186.751L359.779 186.755C356.08 190.012 351.956 193.643 345.981 196.057C340.007 198.471 332.166 199.674 321.036 198.032C309.516 196.329 290.878 190.266 268.044 171.012L268.044 171.011C259.953 164.238 252.47 156.777 245.678 148.713L248.814 146.203C249.935 147.56 258.31 157.537 270.877 168.09C284.254 179.324 302.405 191.233 321.626 194.064C331.79 195.564 338.893 194.55 344.348 192.37C349.789 190.196 353.572 186.867 357.096 183.766L357.114 183.75L357.114 183.75C360.284 180.957 363.334 178.274 367.137 176.856C370.927 175.443 375.487 175.282 381.683 177.592C387.127 179.627 389.663 182.989 390.774 186.878C391.89 190.788 391.571 195.238 391.263 199.454L391.261 199.483C390.907 204.385 390.573 209.012 392.033 212.914C393.506 216.849 396.787 220.017 403.578 222.043L403.63 221.868L403.578 222.043C407.44 223.194 411.591 222.529 415.816 220.681C420.041 218.833 424.356 215.797 428.559 212.179C436.95 204.956 444.928 195.387 450.884 188.242L450.914 188.206C451.483 187.526 452.028 186.871 452.551 186.242C455.895 182.224 458.346 179.279 460.356 177.608L463.412 180.035C462.821 180.733 461.891 181.776 460.754 183.05C460.422 183.422 460.073 183.814 459.709 184.222C458.004 186.138 455.988 188.421 454.013 190.773L454.012 190.773C447.937 198.073 440.46 207.044 432.429 214.191C424.39 221.345 415.836 226.634 407.61 226.634Z" fill="#302EA7" stroke="black" stroke-width="0.4"/>
<path d="M344.934 191.99C344.934 191.99 344.756 192.158 344.4 192.379C343.902 192.708 343.382 193.004 342.844 193.264C341.067 194.13 339.188 194.772 337.252 195.176C335.316 195.573 333.339 195.724 331.365 195.628C330.77 195.596 330.176 195.534 329.587 195.442C329.367 195.423 329.152 195.372 328.947 195.291C328.947 195.22 329.889 195.291 331.383 195.291C335.285 195.311 339.147 194.515 342.72 192.955C344.08 192.335 344.898 191.884 344.934 191.99Z" fill="white"/>
<path d="M249.315 149.658C248.403 150.657 247.13 151.254 245.776 151.318C244.423 151.383 243.098 150.91 242.095 150.003L234.288 142.923L241.17 135.391L248.968 142.472C249.971 143.379 250.571 144.646 250.636 145.993C250.701 147.341 250.226 148.659 249.315 149.658Z" fill="#302EA7"/>
<path d="M249.315 149.658C249.576 149.276 249.817 148.88 250.035 148.472C250.584 147.317 250.67 145.997 250.275 144.781C250.007 143.941 249.519 143.186 248.861 142.595L246.505 140.498C244.842 138.993 242.993 137.338 241.028 135.577H241.33L237.889 139.347L234.448 143.109V142.808L239.89 147.738L242.219 149.87C242.87 150.465 243.668 150.877 244.531 151.065C245.786 151.339 247.099 151.127 248.203 150.472C248.593 150.217 248.967 149.939 249.323 149.64C249.039 150.02 248.686 150.344 248.283 150.596C247.162 151.332 245.794 151.596 244.478 151.331C243.556 151.152 242.699 150.73 241.997 150.109C241.259 149.454 240.476 148.746 239.641 148.012L234.154 143.082L233.994 142.941L234.146 142.781L237.578 139.011L241.019 135.258L241.161 135.099L241.321 135.241L246.763 140.206L249.092 142.339C249.783 142.975 250.287 143.785 250.55 144.684C250.937 145.961 250.803 147.337 250.177 148.516C249.967 148.949 249.674 149.337 249.315 149.658V149.658Z" fill="#263238"/>
<path d="M209.872 107.14L196.41 96.0595C196.159 95.8527 195.951 95.5986 195.799 95.3118C195.646 95.0251 195.552 94.7112 195.521 94.3882C195.491 94.0652 195.525 93.7393 195.621 93.4293C195.717 93.1192 195.873 92.831 196.081 92.5812V92.5812C196.289 92.3312 196.544 92.1244 196.832 91.9726C197.12 91.8208 197.436 91.7271 197.76 91.6967C198.085 91.6663 198.412 91.6998 198.723 91.7954C199.035 91.891 199.324 92.0467 199.575 92.2537L213.028 103.335L209.872 107.14Z" fill="#302EA7"/>
<path d="M197.21 123.328L183.766 112.247C183.514 112.041 183.306 111.787 183.153 111.501C182.999 111.214 182.904 110.901 182.873 110.578C182.842 110.255 182.874 109.929 182.97 109.618C183.065 109.308 183.221 109.019 183.428 108.769V108.769C183.635 108.518 183.89 108.31 184.178 108.158C184.467 108.005 184.782 107.911 185.107 107.881C185.432 107.85 185.76 107.884 186.071 107.98C186.383 108.077 186.672 108.233 186.923 108.441L200.384 119.513L197.21 123.328Z" fill="#302EA7"/>
<g opacity="0.6">
<path opacity="0.6" d="M209.872 107.14L196.41 96.0595C196.159 95.8527 195.951 95.5986 195.799 95.3118C195.646 95.0251 195.552 94.7112 195.521 94.3882C195.491 94.0652 195.525 93.7393 195.621 93.4293C195.717 93.1192 195.873 92.831 196.081 92.5812V92.5812C196.289 92.3312 196.544 92.1244 196.832 91.9726C197.12 91.8208 197.436 91.7271 197.76 91.6967C198.085 91.6663 198.412 91.6998 198.723 91.7954C199.035 91.891 199.324 92.0467 199.575 92.2537L213.028 103.335L209.872 107.14Z" fill="white"/>
</g>
<g opacity="0.6">
<path opacity="0.6" d="M197.21 123.328L183.766 112.247C183.514 112.041 183.306 111.787 183.153 111.501C182.999 111.214 182.904 110.901 182.873 110.578C182.842 110.255 182.874 109.929 182.97 109.618C183.065 109.308 183.221 109.019 183.428 108.769V108.769C183.635 108.518 183.89 108.31 184.178 108.158C184.467 108.005 184.782 107.911 185.107 107.881C185.432 107.85 185.76 107.884 186.071 107.98C186.383 108.077 186.672 108.233 186.923 108.441L200.384 119.513L197.21 123.328Z" fill="white"/>
</g>
<path d="M209.872 107.14C209.933 107.038 210.002 106.941 210.076 106.848L210.681 106.069L212.931 103.246V103.432L206.609 98.3164L202.652 95.0771L200.527 93.307L199.433 92.4219C199.1 92.1364 198.688 91.9575 198.251 91.9086C197.881 91.8615 197.506 91.9063 197.158 92.0392C196.811 92.172 196.502 92.3887 196.259 92.6697C196.024 92.9441 195.858 93.2702 195.774 93.621C195.691 93.9719 195.692 94.3375 195.779 94.6876C195.864 95.0172 196.029 95.321 196.259 95.5727C196.51 95.8346 196.78 96.0772 197.068 96.2984L198.74 97.6791L204.501 102.503L208.405 105.813L209.472 106.698C209.608 106.806 209.735 106.925 209.854 107.052C209.721 106.976 209.596 106.887 209.481 106.786L208.414 105.901C207.427 105.114 206.075 104.043 204.439 102.724L198.517 97.9358L196.81 96.5463C196.499 96.3076 196.202 96.0505 195.921 95.7763C195.545 95.3712 195.305 94.8595 195.234 94.3124C195.163 93.7652 195.266 93.2097 195.527 92.7231C195.788 92.2364 196.195 91.8428 196.691 91.5969C197.187 91.3511 197.748 91.2651 198.295 91.351C198.815 91.4176 199.305 91.6293 199.709 91.9617L200.794 92.8467L202.91 94.6168L206.849 97.8827L213.073 103.096L213.179 103.184L213.091 103.281L210.681 106.078L210.041 106.786C210 106.911 209.943 107.03 209.872 107.14V107.14Z" fill="#263238"/>
<path d="M197.21 123.328C197.271 123.223 197.342 123.125 197.424 123.036C197.584 122.823 197.779 122.567 198.028 122.257L200.278 119.434V119.619L193.956 114.495L189.999 111.265L187.874 109.494L186.781 108.609C186.44 108.329 186.027 108.151 185.589 108.096C185.219 108.052 184.844 108.1 184.497 108.234C184.15 108.368 183.841 108.585 183.597 108.866C183.361 109.14 183.195 109.466 183.113 109.818C183.031 110.169 183.036 110.535 183.126 110.884C183.21 111.212 183.372 111.516 183.597 111.769C183.852 112.028 184.125 112.268 184.415 112.486L186.078 113.875L191.849 118.699L195.752 122.009L196.819 122.894C196.956 122.998 197.081 123.117 197.192 123.248C197.192 123.248 197.068 123.169 196.828 122.983L195.752 122.142L191.778 118.965L185.865 114.176L184.158 112.778C183.842 112.545 183.544 112.287 183.268 112.008C182.991 111.694 182.796 111.317 182.699 110.911C182.591 110.495 182.586 110.06 182.683 109.643C182.781 109.225 182.978 108.837 183.259 108.512C183.553 108.184 183.923 107.932 184.337 107.778C184.75 107.623 185.195 107.572 185.634 107.627C186.153 107.694 186.643 107.906 187.047 108.238C187.412 108.547 187.776 108.84 188.141 109.123L190.257 110.893L194.196 114.15L200.42 119.372L200.518 119.46L200.438 119.558C199.424 120.717 198.615 121.655 198.019 122.345L197.388 123.062C197.299 123.257 197.21 123.337 197.21 123.328Z" fill="#263238"/>
<path d="M240.458 121.186L240.814 120.761C241.566 119.86 241.955 118.714 241.908 117.544C241.86 116.374 241.379 115.263 240.556 114.426C239.734 113.588 238.629 113.084 237.455 113.01C236.28 112.936 235.12 113.298 234.199 114.026L214.495 97.688L191.955 124.532L212.121 140.462C211.496 141.435 211.249 142.602 211.428 143.743C211.606 144.884 212.198 145.92 213.09 146.658V146.658C214.046 147.445 215.274 147.828 216.51 147.725C217.747 147.623 218.894 147.043 219.706 146.109C222.552 148.247 226.123 149.195 229.661 148.754C233.199 148.313 236.425 146.516 238.653 143.746L241.89 139.728C244.05 137.03 245.104 133.617 244.838 130.177C244.572 126.736 243.007 123.524 240.458 121.186V121.186Z" fill="#302EA7"/>
<path d="M240.459 121.186L240.628 121.336L241.099 121.788C241.36 122.028 241.601 122.288 241.819 122.567L242.255 123.098L242.699 123.744C243.485 124.872 244.085 126.118 244.478 127.434C245.069 129.422 245.199 131.517 244.855 133.561C244.511 135.605 243.704 137.545 242.495 139.232C241.775 140.25 240.939 141.215 240.121 142.268C239.296 143.38 238.383 144.425 237.391 145.392C235.136 147.492 232.235 148.77 229.158 149.021C225.751 149.316 222.355 148.351 219.617 146.313H219.893C219.061 147.257 217.902 147.854 216.647 147.985C215.995 148.054 215.336 147.992 214.709 147.803C214.081 147.615 213.498 147.304 212.993 146.888V146.888C212.06 146.116 211.443 145.032 211.256 143.839C211.069 142.646 211.327 141.427 211.979 140.409L212.024 140.684L196.384 128.266L191.822 124.655L191.644 124.523L191.787 124.346C200.002 114.61 207.676 105.459 214.353 97.5286L214.478 97.3782L214.62 97.5021L234.279 113.884H234.128C234.847 113.321 235.711 112.972 236.62 112.878C237.53 112.783 238.448 112.946 239.268 113.349C240.088 113.752 240.777 114.377 241.256 115.153C241.734 115.929 241.982 116.824 241.97 117.734C241.953 118.689 241.643 119.616 241.081 120.389C240.939 120.585 240.784 120.771 240.619 120.947L240.45 121.133C240.45 121.133 240.663 120.867 241.028 120.354C241.552 119.567 241.83 118.643 241.828 117.699C241.825 116.955 241.644 116.222 241.299 115.561C240.954 114.901 240.456 114.332 239.845 113.902C239.072 113.335 238.138 113.025 237.178 113.017C236.11 113.004 235.071 113.357 234.235 114.017L234.155 114.079L234.075 114.017L214.335 97.7322H214.602L192.124 124.638V124.328L196.677 127.939L212.282 140.33L212.433 140.445L212.326 140.604C211.723 141.532 211.48 142.647 211.644 143.741C211.807 144.834 212.366 145.83 213.215 146.543V146.543C214.131 147.297 215.307 147.664 216.492 147.567C217.676 147.469 218.776 146.914 219.555 146.02L219.679 145.888L219.822 145.994C222.359 147.88 225.481 148.821 228.643 148.654C231.805 148.488 234.809 147.224 237.133 145.082C238.101 144.125 238.992 143.096 239.801 142.002C240.628 140.958 241.481 139.984 242.193 138.993C243.782 136.781 244.668 134.145 244.734 131.426C244.801 128.707 244.045 126.03 242.566 123.744C242.415 123.514 242.273 123.292 242.13 123.089L241.704 122.558C241.49 122.272 241.259 122 241.01 121.744L240.557 121.275C240.485 121.216 240.453 121.186 240.459 121.186Z" fill="#263238"/>
<path d="M217.901 121.701L203.998 110.257L201.749 112.965L215.651 124.409L217.901 121.701Z" fill="#E0E0E0"/>
<path d="M240.458 121.186C240.24 121.555 239.99 121.904 239.711 122.23C239.214 122.894 238.476 123.832 237.551 124.983C235.71 127.293 233.105 130.435 230.198 133.878C227.29 137.32 224.703 140.374 222.738 142.684L220.479 145.339C220.212 145.678 219.914 145.992 219.59 146.277C219.809 145.909 220.059 145.559 220.337 145.233C220.835 144.569 221.573 143.631 222.498 142.48C224.338 140.17 226.943 137.028 229.851 133.63L237.311 124.779L239.578 122.124C239.841 121.784 240.136 121.47 240.458 121.186V121.186Z" fill="#263238"/>
<path d="M234.199 113.991C233.966 114.38 233.698 114.747 233.399 115.088C232.856 115.778 232.056 116.77 231.069 117.982C229.077 120.407 226.285 123.717 223.173 127.346C220.061 130.975 217.269 134.196 215.171 136.63C214.175 137.763 213.393 138.71 212.735 139.427C212.448 139.782 212.133 140.114 211.792 140.418C212.034 140.033 212.305 139.666 212.601 139.321C213.144 138.63 213.935 137.639 214.931 136.427C216.923 134.002 219.715 130.692 222.827 127.063L230.829 117.787L233.265 114.982C233.55 114.628 233.863 114.297 234.199 113.991V113.991Z" fill="#263238"/>
<path d="M200.197 75.2525H193.776L196.977 66.5372L187.196 79.8845H193.617L190.416 88.5998L200.197 75.2525Z" fill="#BBBBD6"/>
<path d="M153.272 84.9718H143.611L148.428 101.054L133.711 76.4243H143.372L138.555 60.3419L153.272 84.9718Z" fill="#BBBBD6"/>
</g>
</svg>
