<svg width="46" height="45" viewBox="0 0 46 45" fill="none" xmlns="http://www.w3.org/2000/svg">
<g id="vuesax/linear/profile">
<g id="profile">
<path id="Vector" d="M22.9792 20.1099C22.7917 20.0914 22.5667 20.0914 22.3604 20.1099C17.8979 19.9618 14.3542 16.3526 14.3542 11.9105C14.3542 7.37587 18.0667 3.69263 22.6792 3.69263C27.2729 3.69263 31.0042 7.37587 31.0042 11.9105C30.9854 16.3526 27.4417 19.9618 22.9792 20.1099Z" stroke="black" stroke-width="3.70127" stroke-linecap="round" stroke-linejoin="round"/>
<path id="Vector_2" d="M13.6042 26.9396C9.06667 29.938 9.06667 34.8244 13.6042 37.8043C18.7604 41.2099 27.2167 41.2099 32.3729 37.8043C36.9104 34.8058 36.9104 29.9195 32.3729 26.9396C27.2354 23.5525 18.7792 23.5525 13.6042 26.9396Z" stroke="black" stroke-width="3.70127" stroke-linecap="round" stroke-linejoin="round"/>
</g>
</g>
</svg>
