<svg width="45" height="45" viewBox="0 0 45 45" fill="none" xmlns="http://www.w3.org/2000/svg">
<g id="vuesax/linear/setting-2">
<g id="setting-2">
<path id="Vector" d="M22.5 27.7539C25.6066 27.7539 28.125 25.2679 28.125 22.2013C28.125 19.1347 25.6066 16.6487 22.5 16.6487C19.3934 16.6487 16.875 19.1347 16.875 22.2013C16.875 25.2679 19.3934 27.7539 22.5 27.7539Z" stroke="black" stroke-width="3.70127" stroke-miterlimit="10" stroke-linecap="round" stroke-linejoin="round"/>
<path id="Vector_2" d="M3.75006 23.8301V20.5726C3.75006 18.6476 5.34381 17.0559 7.31256 17.0559C10.7063 17.0559 12.0938 14.6868 10.3876 11.7809C9.41256 10.1151 9.99381 7.94957 11.7001 6.98712L14.9438 5.15475C16.4251 4.28484 18.3376 4.80308 19.2188 6.26527L19.4251 6.61694C21.1126 9.52282 23.8876 9.52282 25.5938 6.61694L25.8001 6.26527C26.6813 4.80308 28.5938 4.28484 30.0751 5.15475L33.3188 6.98712C35.0251 7.94957 35.6063 10.1151 34.6313 11.7809C32.9251 14.6868 34.3126 17.0559 37.7063 17.0559C39.6563 17.0559 41.2688 18.6291 41.2688 20.5726V23.8301C41.2688 25.755 39.6751 27.3468 37.7063 27.3468C34.3126 27.3468 32.9251 29.7159 34.6313 32.6218C35.6063 34.3061 35.0251 36.4531 33.3188 37.4155L30.0751 39.2479C28.5938 40.1178 26.6813 39.5996 25.8001 38.1374L25.5938 37.7857C23.9063 34.8798 21.1313 34.8798 19.4251 37.7857L19.2188 38.1374C18.3376 39.5996 16.4251 40.1178 14.9438 39.2479L11.7001 37.4155C9.99381 36.4531 9.41256 34.2875 10.3876 32.6218C12.0938 29.7159 10.7063 27.3468 7.31256 27.3468C5.34381 27.3468 3.75006 25.755 3.75006 23.8301Z" stroke="black" stroke-width="3.70127" stroke-miterlimit="10" stroke-linecap="round" stroke-linejoin="round"/>
</g>
</g>
</svg>
