<svg width="85" height="82" viewBox="0 0 85 82" fill="none" xmlns="http://www.w3.org/2000/svg">
<path id="Vector" d="M162.61 81.6344H162.609C160.852 81.6395 159.104 81.3888 157.421 80.8904C149.024 78.3874 145.078 74.1341 143.299 69.3202C141.518 64.4996 141.898 59.0901 142.24 54.2156L142.243 54.1734C142.572 49.6368 142.748 45.8973 141.883 42.9391C141.449 41.4537 140.752 40.161 139.68 39.0605C138.609 37.9609 137.171 37.0617 135.267 36.3503L135.267 36.3502C130.253 34.4802 126.685 34.4436 123.58 35.5866C120.5 36.7206 117.898 39.0099 114.81 41.7279L114.784 41.7509L114.909 41.8934L114.784 41.7509L114.779 41.755C111.08 45.0116 106.956 48.643 100.981 51.0573C95.0067 53.4712 87.1656 54.6737 76.0357 53.0318C64.516 51.3294 45.8779 45.266 23.0443 26.0119L23.0437 26.0115C14.9531 19.2379 7.46972 11.7768 0.678164 3.71265L3.81393 1.20274C4.93498 2.55956 13.3103 12.5366 25.8766 23.0898C39.2539 34.3241 57.4053 46.2327 76.6265 49.0642C86.7901 50.564 93.8935 49.5501 99.3476 47.3705C104.789 45.1959 108.572 41.8665 112.096 38.7656L112.114 38.7499L112.114 38.7498C115.284 35.9573 118.334 33.2737 122.137 31.8561C125.927 30.4431 130.487 30.2822 136.683 32.5918C142.127 34.6271 144.663 37.9894 145.774 41.8785C146.89 45.7877 146.571 50.2376 146.263 54.4542L146.261 54.4834C145.907 59.3854 145.573 64.0117 147.033 67.9141C148.506 71.8492 151.787 75.0172 158.578 77.0433L158.63 76.8683L158.578 77.0433C162.44 78.1942 166.591 77.5285 170.816 75.6807C175.041 73.8331 179.356 70.7966 183.559 67.1791C191.95 59.9564 199.928 50.3867 205.884 43.2418L205.914 43.2064C206.483 42.5257 207.028 41.8705 207.551 41.2416C210.895 37.2241 213.346 34.2791 215.356 32.6084L218.412 35.0352C217.821 35.7333 216.891 36.7759 215.754 38.0501C215.422 38.4221 215.073 38.8138 214.709 39.2224C213.004 41.1378 210.988 43.4207 209.013 45.7728L209.012 45.7735C202.937 53.0727 195.46 62.0441 187.429 69.1914C179.39 76.3453 170.836 81.6344 162.61 81.6344Z" fill="#302EA7" stroke="black" stroke-width="0.4"/>
</svg>
