<svg width="26" height="29" viewBox="0 0 26 29" fill="none" xmlns="http://www.w3.org/2000/svg">
<path id="XMLID 34" d="M17.6825 4.64727C16.5483 5.86482 14.7336 6.82514 12.9188 6.68795C12.692 5.04169 13.5805 3.29253 14.6202 2.21217C15.7544 0.960329 17.7392 0.0685996 19.346 5.49571e-06C19.535 1.71486 18.7978 3.39543 17.6825 4.64727ZM19.3271 7.01377C16.6995 6.87659 14.45 8.36851 13.2024 8.36851C11.9359 8.36851 10.0266 7.08237 7.94725 7.11667C5.24406 7.15096 2.72991 8.54 1.34996 10.7522C-1.48555 15.1765 0.612729 21.7273 3.35372 25.3285C4.69586 27.1119 6.30265 29.0668 8.41984 28.9983C10.4236 28.9297 11.2175 27.815 13.6372 27.815C16.0757 27.815 16.7751 28.9982 18.8923 28.964C21.0851 28.9297 22.4651 27.1805 23.8072 25.3971C25.3384 23.3735 25.9622 21.4014 26 21.2985C25.9622 21.2642 21.7656 19.8066 21.7278 15.4166C21.69 11.7468 25.0359 9.99763 25.1872 9.89473C23.2968 7.35675 20.3479 7.08237 19.3271 7.01377Z" fill="white"/>
</svg>
