<svg width="46" height="46" viewBox="0 0 46 46" fill="none" xmlns="http://www.w3.org/2000/svg">
<g id="radix-icons:cross-circled">
<path id="Vector" fill-rule="evenodd" clip-rule="evenodd" d="M2.68945 23C2.68945 17.6133 4.82931 12.4472 8.63827 8.63827C12.4472 4.82931 17.6133 2.68945 23 2.68945C28.3867 2.68945 33.5527 4.82931 37.3617 8.63827C41.1707 12.4472 43.3105 17.6133 43.3105 23C43.3105 28.3867 41.1707 33.5527 37.3617 37.3617C33.5527 41.1707 28.3867 43.3105 23 43.3105C17.6133 43.3105 12.4472 41.1707 8.63827 37.3617C4.82931 33.5527 2.68945 28.3867 2.68945 23ZM23 5.60279C18.386 5.60279 13.9609 7.4357 10.6983 10.6983C7.4357 13.9609 5.60279 18.386 5.60279 23C5.60279 27.614 7.4357 32.0391 10.6983 35.3017C13.9609 38.5643 18.386 40.3972 23 40.3972C27.614 40.3972 32.0391 38.5643 35.3017 35.3017C38.5643 32.0391 40.3972 27.614 40.3972 23C40.3972 18.386 38.5643 13.9609 35.3017 10.6983C32.0391 7.4357 27.614 5.60279 23 5.60279ZM30.2189 15.7841C30.5064 16.0717 30.6679 16.4616 30.6679 16.8682C30.6679 17.2748 30.5064 17.6647 30.2189 17.9523L25.1681 23L30.2189 28.0477C30.5068 28.3356 30.6686 28.7261 30.6686 29.1333C30.6686 29.5405 30.5068 29.931 30.2189 30.2189C29.931 30.5068 29.5405 30.6686 29.1333 30.6686C28.7261 30.6686 28.3356 30.5068 28.0477 30.2189L23 25.1681L17.9523 30.2189C17.8097 30.3615 17.6404 30.4746 17.4542 30.5517C17.2679 30.6289 17.0683 30.6686 16.8667 30.6686C16.665 30.6686 16.4654 30.6289 16.2791 30.5517C16.0929 30.4746 15.9236 30.3615 15.7811 30.2189C15.6385 30.0764 15.5254 29.9071 15.4482 29.7208C15.3711 29.5346 15.3314 29.3349 15.3314 29.1333C15.3314 28.9317 15.3711 28.7321 15.4482 28.5458C15.5254 28.3595 15.6385 28.1903 15.7811 28.0477L20.8319 23L15.7811 17.9523C15.4931 17.6643 15.3314 17.2738 15.3314 16.8667C15.3314 16.4595 15.4931 16.069 15.7811 15.7811C16.069 15.4931 16.4595 15.3314 16.8667 15.3314C17.2738 15.3314 17.6643 15.4931 17.9523 15.7811L23 20.8319L28.0477 15.7811C28.1902 15.6383 28.3594 15.525 28.5456 15.4477C28.7319 15.3704 28.9316 15.3306 29.1333 15.3306C29.335 15.3306 29.5347 15.3704 29.721 15.4477C29.9073 15.525 30.0765 15.6413 30.2189 15.7841Z" fill="black"/>
</g>
</svg>
