<svg width="43" height="43" viewBox="0 0 43 43" fill="none" xmlns="http://www.w3.org/2000/svg">
<g id="simple-line-icons:check">
<path id="Vector" d="M21.5 0C9.62595 0 0 9.62595 0 21.5C0 33.3747 9.62595 43 21.5 43C33.3747 43 43 33.3747 43 21.5C43 9.62595 33.3747 0 21.5 0ZM21.5 40.3548C11.1269 40.3548 2.6875 31.8731 2.6875 21.4999C2.6875 11.1268 11.1269 2.68742 21.5 2.68742C31.8731 2.68742 40.3125 11.1269 40.3125 21.4999C40.3125 31.873 31.8731 40.3548 21.5 40.3548ZM30.0805 13.633L17.466 26.3267L11.7853 20.646C11.2606 20.1213 10.41 20.1213 9.88458 20.646C9.35985 21.1708 9.35985 22.0214 9.88458 22.5461L16.5355 29.1977C17.0602 29.7217 17.9108 29.7217 18.4362 29.1977C18.4967 29.1372 18.5485 29.0713 18.5955 29.0028L31.9819 15.5337C32.506 15.009 32.506 14.1584 31.9819 13.633C31.4565 13.1083 30.6059 13.1083 30.0805 13.633Z" fill="black"/>
</g>
</svg>
