<svg width="35" height="36" viewBox="0 0 35 36" fill="none" xmlns="http://www.w3.org/2000/svg">
<g id="material-symbols:share-outline">
<path id="Vector" d="M24.7916 33C23.5763 33 22.5434 32.5625 21.6927 31.6875C20.842 30.8125 20.4166 29.75 20.4166 28.5C20.4166 28.35 20.4531 28 20.526 27.45L10.2812 21.3C9.89232 21.675 9.44267 21.969 8.93225 22.182C8.42183 22.395 7.87496 22.501 7.29163 22.5C6.07635 22.5 5.04336 22.0625 4.19267 21.1875C3.34197 20.3125 2.91663 19.25 2.91663 18C2.91663 16.75 3.34197 15.6875 4.19267 14.8125C5.04336 13.9375 6.07635 13.5 7.29163 13.5C7.87496 13.5 8.42183 13.6065 8.93225 13.8195C9.44267 14.0325 9.89232 14.326 10.2812 14.7L20.526 8.55C20.4774 8.375 20.4473 8.2065 20.4356 8.0445C20.4239 7.8825 20.4176 7.701 20.4166 7.5C20.4166 6.25 20.842 5.1875 21.6927 4.3125C22.5434 3.4375 23.5763 3 24.7916 3C26.0069 3 27.0399 3.4375 27.8906 4.3125C28.7413 5.1875 29.1666 6.25 29.1666 7.5C29.1666 8.75 28.7413 9.8125 27.8906 10.6875C27.0399 11.5625 26.0069 12 24.7916 12C24.2083 12 23.6614 11.8935 23.151 11.6805C22.6406 11.4675 22.1909 11.174 21.802 10.8L11.5573 16.95C11.6059 17.125 11.6365 17.294 11.6491 17.457C11.6618 17.62 11.6676 17.801 11.6666 18C11.6657 18.199 11.6598 18.3805 11.6491 18.5445C11.6384 18.7085 11.6078 18.877 11.5573 19.05L21.802 25.2C22.1909 24.825 22.6406 24.5315 23.151 24.3195C23.6614 24.1075 24.2083 24.001 24.7916 24C26.0069 24 27.0399 24.4375 27.8906 25.3125C28.7413 26.1875 29.1666 27.25 29.1666 28.5C29.1666 29.75 28.7413 30.8125 27.8906 31.6875C27.0399 32.5625 26.0069 33 24.7916 33ZM24.7916 30C25.2048 30 25.5514 29.8565 25.8314 29.5695C26.1114 29.2825 26.2509 28.926 26.25 28.5C26.249 28.074 26.109 27.718 25.83 27.432C25.5509 27.146 25.2048 27.002 24.7916 27C24.3784 26.998 24.0323 27.142 23.7533 27.432C23.4743 27.722 23.3343 28.078 23.3333 28.5C23.3323 28.922 23.4723 29.2785 23.7533 29.5695C24.0343 29.8605 24.3804 30.004 24.7916 30ZM7.29163 19.5C7.70482 19.5 8.05142 19.356 8.33142 19.068C8.61142 18.78 8.75093 18.424 8.74996 18C8.74899 17.576 8.60899 17.22 8.32996 16.932C8.05093 16.644 7.70482 16.5 7.29163 16.5C6.87843 16.5 6.53232 16.644 6.25329 16.932C5.97427 17.22 5.83426 17.576 5.83329 18C5.83232 18.424 5.97232 18.7805 6.25329 19.0695C6.53427 19.3585 6.88038 19.502 7.29163 19.5ZM24.7916 9C25.2048 9 25.5514 8.856 25.8314 8.568C26.1114 8.28 26.2509 7.924 26.25 7.5C26.249 7.076 26.109 6.72 25.83 6.432C25.5509 6.144 25.2048 6 24.7916 6C24.3784 6 24.0323 6.144 23.7533 6.432C23.4743 6.72 23.3343 7.076 23.3333 7.5C23.3323 7.924 23.4723 8.2805 23.7533 8.5695C24.0343 8.8585 24.3804 9.002 24.7916 9Z" fill="black"/>
</g>
</svg>
