<svg width="49" height="48" viewBox="0 0 49 48" fill="none" xmlns="http://www.w3.org/2000/svg">
<path id="Color" fill-rule="evenodd" clip-rule="evenodd" d="M37.9355 43.9113C38.8085 43.9113 39.5161 44.6128 39.5161 45.478C39.5161 46.3433 38.8085 47.0447 37.9355 47.0447H23.7097C23.6168 47.0447 23.5257 47.0367 23.4372 47.0215C18.3596 46.7995 13.6969 44.9946 9.93921 42.0924C9.63359 41.8563 9.17302 41.4651 8.83167 41.1707C8.53973 40.9189 8.16662 40.778 7.77964 40.778H3.95161C3.07865 40.778 2.37097 40.0766 2.37097 39.2113C2.37097 38.3461 3.07865 37.6447 3.95161 37.6447H5.53226C6.40522 37.6447 7.1129 36.9433 7.1129 36.078C7.1129 35.2128 6.40522 34.5113 5.53226 34.5113H1.58065C0.707679 34.5113 0 33.8099 0 32.9447C0 32.0794 0.707679 31.378 1.58065 31.378H2.37097C3.24393 31.378 3.95161 30.6766 3.95161 29.8113C3.95161 28.9461 3.24393 28.2447 2.37097 28.2447C1.73183 28.2447 1.18518 27.7881 1.07884 27.1634C1.0402 26.9364 1.00951 26.7537 1.00445 26.7165C0.863242 25.6792 0.790323 24.6204 0.790323 23.5447C0.790323 10.566 11.4055 0.0446777 24.5 0.0446777C28.4516 0.0446777 32.4032 0.0446777 36.3548 0.0446777C37.2278 0.0446777 37.9355 0.746098 37.9355 1.61134C37.9355 2.47659 37.2278 3.17801 36.3548 3.17801H33.9839C33.1109 3.17801 32.4032 3.87943 32.4032 4.74468C32.4032 5.60992 33.1109 6.31134 33.9839 6.31134H43.4677C44.3407 6.31134 45.0484 7.01277 45.0484 7.87801C45.0484 8.74268 44.3416 9.44375 43.4695 9.44468L41.0968 9.44468C40.2238 9.44468 39.5161 10.1461 39.5161 11.0113C39.5161 11.8766 40.2238 12.578 41.0968 12.578H44.4999C45.0977 12.578 45.6456 12.9116 45.9047 13.4455C46.0605 13.7664 46.2244 14.1125 46.3316 14.3627C47.5408 17.1835 48.2097 20.2866 48.2097 23.5447C48.2097 24.5684 48.1436 25.5768 48.0156 26.5659C47.994 26.7322 47.961 26.9457 47.925 27.1643C47.8218 27.7914 47.2701 28.2447 46.629 28.2447C45.7561 28.2447 45.0484 28.9461 45.0484 29.8113C45.0484 30.6766 45.7561 31.378 46.629 31.378H47.4194C48.2923 31.378 49 32.0794 49 32.9447C49 33.8099 48.2923 34.5113 47.4194 34.5113H46.4047C45.8309 34.5113 45.3032 34.8201 45.0165 35.3128C44.8303 35.6328 44.6233 35.981 44.4695 36.2186C44.109 36.7754 43.7254 37.3163 43.3201 37.8397C42.913 38.3654 42.484 38.8736 42.0344 39.3629C41.7877 39.6314 41.388 40.0292 41.0763 40.3347C40.7846 40.6205 40.3903 40.778 39.9801 40.778H35.5645C34.6916 40.778 33.9839 41.4794 33.9839 42.3447C33.9839 43.2039 34.6817 43.9016 35.5463 43.9112L37.9355 43.9113Z" fill="url(#paint0_linear_683_272)"/>
<defs>
<linearGradient id="paint0_linear_683_272" x1="0.754562" y1="0.0446777" x2="0.754562" y2="45.5972" gradientUnits="userSpaceOnUse">
<stop stop-color="#AE66FF"/>
<stop offset="1" stop-color="#7E07E0"/>
</linearGradient>
</defs>
</svg>
