<svg width="37" height="42" viewBox="0 0 37 42" fill="none" xmlns="http://www.w3.org/2000/svg">
<g id="Group 78">
<g id="Rectangle 5 Copy 2" filter="url(#filter0_d_683_287)">
<path fill-rule="evenodd" clip-rule="evenodd" d="M7.66797 0.550537H20.2301V19.9218C20.2301 22.5649 17.4486 24.284 15.0845 23.102L13.949 22.5343L12.8136 23.102C10.4495 24.284 7.66797 22.5649 7.66797 19.9218L7.66797 0.550537Z" fill="#32B4FF"/>
</g>
<g id="Rectangle 5 Copy 2_2" filter="url(#filter1_d_683_287)">
<path fill-rule="evenodd" clip-rule="evenodd" d="M17.0895 0.550537H29.6516V19.9218C29.6516 22.5649 26.8701 24.284 24.506 23.102L23.3705 22.5343L22.2351 23.102C19.871 24.284 17.0895 22.5649 17.0895 19.9218V0.550537Z" fill="#32B4FF"/>
</g>
<g id="Group 52">
<g id="Mask" filter="url(#filter2_d_683_287)">
<path fill-rule="evenodd" clip-rule="evenodd" d="M12.3779 4.47644H24.9401V23.8477C24.9401 26.4908 22.1585 28.2099 19.7944 27.0279L18.659 26.4602L17.5236 27.0279C15.1595 28.2099 12.3779 26.4908 12.3779 23.8477V4.47644Z" fill="white"/>
</g>
<mask id="mask0_683_287" style="mask-type:luminance" maskUnits="userSpaceOnUse" x="12" y="4" width="13" height="24">
<path id="Mask_2" fill-rule="evenodd" clip-rule="evenodd" d="M12.3779 4.47644H24.9401V23.8477C24.9401 26.4908 22.1585 28.2099 19.7944 27.0279L18.659 26.4602L17.5236 27.0279C15.1595 28.2099 12.3779 26.4908 12.3779 23.8477V4.47644Z" fill="white"/>
</mask>
<g mask="url(#mask0_683_287)">
<rect id="Rectangle 6" x="15.5187" y="4.47644" width="6.28107" height="25.1243" fill="#F55462"/>
</g>
</g>
</g>
<defs>
<filter id="filter0_d_683_287" x="0.556858" y="0.550537" width="26.7844" height="37.1536" filterUnits="userSpaceOnUse" color-interpolation-filters="sRGB">
<feFlood flood-opacity="0" result="BackgroundImageFix"/>
<feColorMatrix in="SourceAlpha" type="matrix" values="0 0 0 0 0 0 0 0 0 0 0 0 0 0 0 0 0 0 127 0" result="hardAlpha"/>
<feOffset dy="7.11111"/>
<feGaussianBlur stdDeviation="3.55556"/>
<feColorMatrix type="matrix" values="0 0 0 0 0.309804 0 0 0 0 0.247059 0 0 0 0 0.866667 0 0 0 0.2 0"/>
<feBlend mode="darken" in2="BackgroundImageFix" result="effect1_dropShadow_683_287"/>
<feBlend mode="normal" in="SourceGraphic" in2="effect1_dropShadow_683_287" result="shape"/>
</filter>
<filter id="filter1_d_683_287" x="9.97837" y="0.550537" width="26.7844" height="37.1536" filterUnits="userSpaceOnUse" color-interpolation-filters="sRGB">
<feFlood flood-opacity="0" result="BackgroundImageFix"/>
<feColorMatrix in="SourceAlpha" type="matrix" values="0 0 0 0 0 0 0 0 0 0 0 0 0 0 0 0 0 0 127 0" result="hardAlpha"/>
<feOffset dy="7.11111"/>
<feGaussianBlur stdDeviation="3.55556"/>
<feColorMatrix type="matrix" values="0 0 0 0 0.309804 0 0 0 0 0.247059 0 0 0 0 0.866667 0 0 0 0.2 0"/>
<feBlend mode="darken" in2="BackgroundImageFix" result="effect1_dropShadow_683_287"/>
<feBlend mode="normal" in="SourceGraphic" in2="effect1_dropShadow_683_287" result="shape"/>
</filter>
<filter id="filter2_d_683_287" x="5.26682" y="4.47644" width="26.7844" height="37.1536" filterUnits="userSpaceOnUse" color-interpolation-filters="sRGB">
<feFlood flood-opacity="0" result="BackgroundImageFix"/>
<feColorMatrix in="SourceAlpha" type="matrix" values="0 0 0 0 0 0 0 0 0 0 0 0 0 0 0 0 0 0 127 0" result="hardAlpha"/>
<feOffset dy="7.11111"/>
<feGaussianBlur stdDeviation="3.55556"/>
<feColorMatrix type="matrix" values="0 0 0 0 0.309804 0 0 0 0 0.247059 0 0 0 0 0.866667 0 0 0 0.2 0"/>
<feBlend mode="darken" in2="BackgroundImageFix" result="effect1_dropShadow_683_287"/>
<feBlend mode="normal" in="SourceGraphic" in2="effect1_dropShadow_683_287" result="shape"/>
</filter>
</defs>
</svg>
