<svg width="48" height="50" viewBox="0 0 48 50" fill="none" xmlns="http://www.w3.org/2000/svg">
<g id="Group 65">
<path id="Mask Copy 32" fill-rule="evenodd" clip-rule="evenodd" d="M16.6952 5.18819C21.1928 2.49606 26.8066 2.49606 31.3042 5.1882L37.545 8.92376C41.836 11.4923 44.4627 16.1258 44.4627 21.1269V29.4995C44.4627 34.5005 41.836 39.1341 37.5449 41.7026L31.3042 45.4381C26.8066 48.1303 21.1928 48.1303 16.6952 45.4381L10.4545 41.7026C6.1634 39.1341 3.53673 34.5005 3.53673 29.4995V21.1269C3.53673 16.1258 6.1634 11.4923 10.4545 8.92376L16.6952 5.18819Z" fill="url(#paint0_linear_683_212)" stroke="#FFF04D" stroke-opacity="0.4" stroke-width="3.55556"/>
<mask id="mask0_683_212" style="mask-type:luminance" maskUnits="userSpaceOnUse" x="1" y="1" width="46" height="49">
<path id="Mask Copy 32_2" fill-rule="evenodd" clip-rule="evenodd" d="M16.6952 5.18819C21.1928 2.49606 26.8066 2.49606 31.3042 5.1882L37.545 8.92376C41.836 11.4923 44.4627 16.1258 44.4627 21.1269V29.4995C44.4627 34.5005 41.836 39.1341 37.5449 41.7026L31.3042 45.4381C26.8066 48.1303 21.1928 48.1303 16.6952 45.4381L10.4545 41.7026C6.1634 39.1341 3.53673 34.5005 3.53673 29.4995V21.1269C3.53673 16.1258 6.1634 11.4923 10.4545 8.92376L16.6952 5.18819Z" fill="white" stroke="white" stroke-width="3.55556"/>
</mask>
<g mask="url(#mask0_683_212)">
<path id="Mask Copy 14" d="M25.797 2.507C24.6845 1.84109 23.3138 1.84109 22.2013 2.507L5.84763 12.2959C4.73513 12.9618 4.0498 14.1925 4.0498 15.5243L4.0498 35.1021C4.0498 36.4339 4.73513 37.6646 5.84763 38.3305L22.2013 48.1194C23.3138 48.7853 24.6845 48.7853 25.797 48.1194L42.1506 38.3305C43.2631 37.6646 43.9484 36.4339 43.9484 35.1021V15.5243C43.9484 14.1925 43.2631 12.9618 42.1506 12.2959L25.797 2.507Z" stroke="#F9B607" stroke-width="3.55556" stroke-linecap="round"/>
<path id="Mask Copy 15" d="M43.9484 35.1021V15.5243C43.9484 14.1925 43.2631 12.9618 42.1506 12.2959L25.797 2.507C24.6845 1.84109 23.3138 1.84109 22.2013 2.507L5.84763 12.2959C4.73513 12.9618 4.0498 14.1925 4.0498 15.5243L4.0498 35.1021" stroke="#FBC618" stroke-width="3.55556" stroke-linecap="round"/>
<path id="Mask Copy 16" opacity="0.6" d="M43.9484 15.5243C43.9484 14.1925 43.2631 12.9618 42.1506 12.2959L25.797 2.507C24.6845 1.84109 23.3138 1.84109 22.2013 2.507L5.84763 12.2959C4.73513 12.9618 4.0498 14.1925 4.0498 15.5243" stroke="#FFF24E" stroke-width="3.55556" stroke-linecap="round"/>
<path id="Mask Copy 17" opacity="0.4" d="M25.7973 2.507C24.6848 1.84109 23.3141 1.84109 22.2016 2.507C22.2016 2.507 16.7504 5.76997 14.0248 7.40145" stroke="white" stroke-width="3.55556" stroke-linecap="round"/>
<path id="Mask Copy 18" d="M22.2019 2.50684C22.2019 2.50684 19.3169 4.23373 18.1135 4.95406" stroke="white" stroke-width="3.55556" stroke-linecap="round"/>
<path id="Mask Copy 29" opacity="0.4" d="M25.7977 48.1196C27.7211 46.9683 29.0839 46.1526 29.8861 45.6724" stroke="white" stroke-width="3.55556" stroke-linecap="round"/>
</g>
</g>
<defs>
<linearGradient id="paint0_linear_683_212" x1="0.371094" y1="0.815918" x2="0.371094" y2="49.8104" gradientUnits="userSpaceOnUse">
<stop stop-color="#FDE046"/>
<stop offset="1" stop-color="#F9B800"/>
</linearGradient>
</defs>
</svg>
