<svg width="43" height="45" viewBox="0 0 43 45" fill="none" xmlns="http://www.w3.org/2000/svg">
<g id="Group 69">
<path id="Mask Copy 32" fill-rule="evenodd" clip-rule="evenodd" d="M14.6324 5.63652C19.0268 3.10508 24.4366 3.10509 28.8309 5.63652L33.0103 8.0441C37.4173 10.5829 40.1333 15.2817 40.1333 20.3677V25.1282C40.1333 30.2142 37.4173 34.913 33.0103 37.4518L28.8309 39.8594C24.4366 42.3908 19.0268 42.3908 14.6324 39.8594L10.4531 37.4518C6.04605 34.913 3.33013 30.2142 3.33013 25.1282V20.3678C3.33013 15.2818 6.04605 10.5829 10.4531 8.0441L14.6324 5.63652Z" fill="url(#paint0_linear_683_259)" stroke="#FFF04D" stroke-opacity="0.4" stroke-width="3.55556"/>
<path id="Mask Copy 14" d="M23.3484 3.01024C22.3479 2.43392 21.1153 2.43392 20.1149 3.01024L5.40871 11.482C4.40828 12.0583 3.79199 13.1234 3.79199 14.276L3.79199 31.2195C3.79199 32.3722 4.40828 33.4372 5.40871 34.0136L20.1149 42.4853C21.1153 43.0616 22.3479 43.0616 23.3484 42.4853L38.0546 34.0136C39.055 33.4372 39.6713 32.3722 39.6713 31.2195V14.276C39.6713 13.1234 39.055 12.0583 38.0546 11.482L23.3484 3.01024Z" stroke="#F9B307" stroke-width="3.55556"/>
<path id="Mask Copy 29" opacity="0.4" d="M23.3483 42.4856C25.0778 41.4893 26.3034 40.7833 27.0248 40.3677" stroke="white" stroke-width="3.55556" stroke-linecap="round"/>
<path id="Mask Copy 15" d="M39.6713 31.2195V14.276C39.6713 13.1234 39.055 12.0583 38.0546 11.482L23.3484 3.01024C22.3479 2.43392 21.1153 2.43392 20.1149 3.01024L5.40871 11.482C4.40828 12.0583 3.79199 13.1234 3.79199 14.276L3.79199 31.2195" stroke="#FAC00E" stroke-width="3.55556" stroke-linecap="round"/>
<path id="Mask Copy 16" opacity="0.6" d="M39.6713 14.276C39.6713 13.1234 39.055 12.0583 38.0546 11.482L23.3484 3.01024C22.3479 2.43392 21.1153 2.43392 20.1149 3.01024L5.40871 11.482C4.40828 12.0583 3.79199 13.1234 3.79199 14.276" stroke="#FDDB3D" stroke-width="3.55556" stroke-linecap="round"/>
<path id="Mask Copy 17" opacity="0.6" d="M23.3484 3.01024C22.348 2.43392 21.1154 2.43392 20.1149 3.01024C20.1149 3.01024 15.2129 5.83416 12.7618 7.24612" stroke="white" stroke-width="3.55556" stroke-linecap="round"/>
<path id="Mask Copy 18" d="M20.115 3.01013C20.115 3.01013 17.5207 4.50467 16.4385 5.12807" stroke="white" stroke-width="3.55556" stroke-linecap="round"/>
</g>
<defs>
<linearGradient id="paint0_linear_683_259" x1="0.483398" y1="1.54688" x2="0.483398" y2="43.949" gradientUnits="userSpaceOnUse">
<stop stop-color="#FDE046"/>
<stop offset="1" stop-color="#F9B800"/>
</linearGradient>
</defs>
</svg>
