<svg width="60" height="51" viewBox="0 0 60 51" fill="none" xmlns="http://www.w3.org/2000/svg">
<g id="Group 57">
<g id="Group 13">
<g id="Mask" filter="url(#filter0_d_683_203)">
<path fill-rule="evenodd" clip-rule="evenodd" d="M22.8826 0.117676L37.1177 8.63846L22.5555 34.7881C21.2451 37.1412 17.9409 37.1617 16.5317 34.8254L14.7186 31.8195L11.3011 31.6945C8.64499 31.5974 7.00999 28.6204 8.3204 26.2673L22.8826 0.117676Z" fill="#2DCD6B"/>
</g>
<mask id="mask0_683_203" style="mask-type:luminance" maskUnits="userSpaceOnUse" x="7" y="0" width="31" height="37">
<path id="Mask_2" fill-rule="evenodd" clip-rule="evenodd" d="M22.8826 0.117676L37.1177 8.63846L22.5555 34.7881C21.2451 37.1412 17.9409 37.1617 16.5317 34.8254L14.7186 31.8195L11.3011 31.6945C8.64499 31.5974 7.00999 28.6204 8.3204 26.2673L22.8826 0.117676Z" fill="white"/>
</mask>
<g mask="url(#mask0_683_203)">
<path id="Rectangle 6" fill-rule="evenodd" clip-rule="evenodd" d="M18.2223 17.0063L25.3398 21.2667L16.0939 37.87L8.97631 33.6096L18.2223 17.0063Z" fill="white"/>
</g>
</g>
<g id="Group 13 Copy">
<g id="Mask_3" filter="url(#filter1_d_683_203)">
<path fill-rule="evenodd" clip-rule="evenodd" d="M37.119 0.117676L22.8839 8.63846L37.4461 34.7881C38.7565 37.1412 42.0607 37.1617 43.4699 34.8254L45.283 31.8195L48.7004 31.6945C51.3566 31.5974 52.9916 28.6204 51.6812 26.2673L37.119 0.117676Z" fill="#2DCD6B"/>
</g>
<mask id="mask1_683_203" style="mask-type:luminance" maskUnits="userSpaceOnUse" x="22" y="0" width="31" height="37">
<path id="Mask_4" fill-rule="evenodd" clip-rule="evenodd" d="M37.119 0.117676L22.8839 8.63846L37.4461 34.7881C38.7565 37.1412 42.0607 37.1617 43.4699 34.8254L45.283 31.8195L48.7004 31.6945C51.3566 31.5974 52.9916 28.6204 51.6812 26.2673L37.119 0.117676Z" fill="white"/>
</mask>
<g mask="url(#mask1_683_203)">
<path id="Rectangle 6_2" fill-rule="evenodd" clip-rule="evenodd" d="M41.7793 17.0063L34.6617 21.2667L43.9077 37.87L51.0253 33.6096L41.7793 17.0063Z" fill="white"/>
</g>
</g>
</g>
<defs>
<filter id="filter0_d_683_203" x="0.748142" y="0.117676" width="43.4806" height="50.6699" filterUnits="userSpaceOnUse" color-interpolation-filters="sRGB">
<feFlood flood-opacity="0" result="BackgroundImageFix"/>
<feColorMatrix in="SourceAlpha" type="matrix" values="0 0 0 0 0 0 0 0 0 0 0 0 0 0 0 0 0 0 127 0" result="hardAlpha"/>
<feOffset dy="7.11111"/>
<feGaussianBlur stdDeviation="3.55556"/>
<feColorMatrix type="matrix" values="0 0 0 0 0.333333 0 0 0 0 0.615373 0 0 0 0 0.819608 0 0 0 0.2 0"/>
<feBlend mode="darken" in2="BackgroundImageFix" result="effect1_dropShadow_683_203"/>
<feBlend mode="normal" in="SourceGraphic" in2="effect1_dropShadow_683_203" result="shape"/>
</filter>
<filter id="filter1_d_683_203" x="15.7728" y="0.117676" width="43.4806" height="50.6699" filterUnits="userSpaceOnUse" color-interpolation-filters="sRGB">
<feFlood flood-opacity="0" result="BackgroundImageFix"/>
<feColorMatrix in="SourceAlpha" type="matrix" values="0 0 0 0 0 0 0 0 0 0 0 0 0 0 0 0 0 0 127 0" result="hardAlpha"/>
<feOffset dy="7.11111"/>
<feGaussianBlur stdDeviation="3.55556"/>
<feColorMatrix type="matrix" values="0 0 0 0 0.333333 0 0 0 0 0.615373 0 0 0 0 0.819608 0 0 0 0.2 0"/>
<feBlend mode="darken" in2="BackgroundImageFix" result="effect1_dropShadow_683_203"/>
<feBlend mode="normal" in="SourceGraphic" in2="effect1_dropShadow_683_203" result="shape"/>
</filter>
</defs>
</svg>
