<svg width="54" height="46" viewBox="0 0 54 46" fill="none" xmlns="http://www.w3.org/2000/svg">
<g id="Group 67">
<g id="Group 13">
<g id="Mask" filter="url(#filter0_d_683_237)">
<path fill-rule="evenodd" clip-rule="evenodd" d="M20.8002 0.481445L33.6013 7.85573L20.8569 29.8806C19.5142 32.201 16.1814 32.262 14.7588 29.9922L13.4586 27.9177L11.0079 27.8315C8.32654 27.7371 6.71313 24.8267 8.05582 22.5063L20.8002 0.481445Z" fill="#F55462"/>
</g>
<mask id="mask0_683_237" style="mask-type:luminance" maskUnits="userSpaceOnUse" x="7" y="0" width="27" height="32">
<path id="Mask_2" fill-rule="evenodd" clip-rule="evenodd" d="M20.8002 0.481445L33.6013 7.85573L20.8569 29.8806C19.5142 32.201 16.1814 32.262 14.7588 29.9922L13.4586 27.9177L11.0079 27.8315C8.32654 27.7371 6.71313 24.8267 8.05582 22.5063L20.8002 0.481445Z" fill="white"/>
</mask>
<g mask="url(#mask0_683_237)">
<path id="Rectangle 6" fill-rule="evenodd" clip-rule="evenodd" d="M16.609 15.0977L23.0096 18.7848L14.695 33.154L8.29446 29.4669L16.609 15.0977Z" fill="white"/>
</g>
</g>
<g id="Group 13 Copy">
<g id="Mask_3" filter="url(#filter1_d_683_237)">
<path fill-rule="evenodd" clip-rule="evenodd" d="M33.6019 0.481445L20.8008 7.85573L33.5452 29.8806C34.8879 32.201 38.2207 32.262 39.6433 29.9922L40.9435 27.9177L43.3942 27.8315C46.0756 27.7371 47.689 24.8267 46.3463 22.5063L33.6019 0.481445Z" fill="#F55462"/>
</g>
<mask id="mask1_683_237" style="mask-type:luminance" maskUnits="userSpaceOnUse" x="20" y="0" width="27" height="32">
<path id="Mask_4" fill-rule="evenodd" clip-rule="evenodd" d="M33.6019 0.481445L20.8008 7.85573L33.5452 29.8806C34.8879 32.201 38.2207 32.262 39.6433 29.9922L40.9435 27.9177L43.3942 27.8315C46.0756 27.7371 47.689 24.8267 46.3463 22.5063L33.6019 0.481445Z" fill="white"/>
</mask>
<g mask="url(#mask1_683_237)">
<path id="Rectangle 6_2" fill-rule="evenodd" clip-rule="evenodd" d="M37.7931 15.0977L31.3925 18.7848L39.7071 33.154L46.1076 29.4669L37.7931 15.0977Z" fill="white"/>
</g>
</g>
</g>
<defs>
<filter id="filter0_d_683_237" x="0.462375" y="0.481445" width="40.2499" height="45.3991" filterUnits="userSpaceOnUse" color-interpolation-filters="sRGB">
<feFlood flood-opacity="0" result="BackgroundImageFix"/>
<feColorMatrix in="SourceAlpha" type="matrix" values="0 0 0 0 0 0 0 0 0 0 0 0 0 0 0 0 0 0 127 0" result="hardAlpha"/>
<feOffset dy="7.11111"/>
<feGaussianBlur stdDeviation="3.55556"/>
<feColorMatrix type="matrix" values="0 0 0 0 0.401412 0 0 0 0 0.333333 0 0 0 0 0.819608 0 0 0 0.2 0"/>
<feBlend mode="darken" in2="BackgroundImageFix" result="effect1_dropShadow_683_237"/>
<feBlend mode="normal" in="SourceGraphic" in2="effect1_dropShadow_683_237" result="shape"/>
</filter>
<filter id="filter1_d_683_237" x="13.6898" y="0.481445" width="40.2499" height="45.3991" filterUnits="userSpaceOnUse" color-interpolation-filters="sRGB">
<feFlood flood-opacity="0" result="BackgroundImageFix"/>
<feColorMatrix in="SourceAlpha" type="matrix" values="0 0 0 0 0 0 0 0 0 0 0 0 0 0 0 0 0 0 127 0" result="hardAlpha"/>
<feOffset dy="7.11111"/>
<feGaussianBlur stdDeviation="3.55556"/>
<feColorMatrix type="matrix" values="0 0 0 0 0.401412 0 0 0 0 0.333333 0 0 0 0 0.819608 0 0 0 0.2 0"/>
<feBlend mode="darken" in2="BackgroundImageFix" result="effect1_dropShadow_683_237"/>
<feBlend mode="normal" in="SourceGraphic" in2="effect1_dropShadow_683_237" result="shape"/>
</filter>
</defs>
</svg>
