<svg width="36" height="36" viewBox="0 0 36 36" fill="none" xmlns="http://www.w3.org/2000/svg">
<g id="Ellipse 8">
<mask id="path-1-inside-1_610_231" fill="white">
<path d="M0.427421 16.1944C1.42463 6.48927 10.1006 -0.569873 19.8057 0.427333C29.5108 1.42454 36.5699 10.1005 35.5727 19.8056C34.5755 29.5107 25.8996 36.5698 16.1945 35.5726C6.48936 34.5754 -0.569785 25.8995 0.427421 16.1944ZM30.622 19.2969C31.3382 12.326 26.2679 6.09431 19.297 5.37804C12.3261 4.66178 6.0944 9.73216 5.37813 16.7031C4.66187 23.674 9.73225 29.9056 16.7031 30.6219C23.674 31.3382 29.9057 26.2678 30.622 19.2969Z"/>
</mask>
<path d="M0.427421 16.1944C1.42463 6.48927 10.1006 -0.569873 19.8057 0.427333C29.5108 1.42454 36.5699 10.1005 35.5727 19.8056C34.5755 29.5107 25.8996 36.5698 16.1945 35.5726C6.48936 34.5754 -0.569785 25.8995 0.427421 16.1944ZM30.622 19.2969C31.3382 12.326 26.2679 6.09431 19.297 5.37804C12.3261 4.66178 6.0944 9.73216 5.37813 16.7031C4.66187 23.674 9.73225 29.9056 16.7031 30.6219C23.674 31.3382 29.9057 26.2678 30.622 19.2969Z" fill="#26B6EB" stroke="black" stroke-width="2" mask="url(#path-1-inside-1_610_231)"/>
</g>
</svg>
