<svg width="35" height="35" viewBox="0 0 35 35" fill="none" xmlns="http://www.w3.org/2000/svg">
<g id="Ellipse 6">
<mask id="path-1-inside-1_610_242" fill="white">
<path d="M0.381379 15.7731C1.35484 6.29903 9.8242 -0.592037 19.2982 0.381426C28.7723 1.35489 35.6633 9.82425 34.6899 19.2983C33.7164 28.7723 25.247 35.6634 15.773 34.6899C6.29898 33.7164 -0.592084 25.2471 0.381379 15.7731ZM29.857 18.8017C30.5562 11.9968 25.6066 5.91347 18.8017 5.21426C11.9967 4.51505 5.91343 9.46471 5.21422 16.2696C4.51501 23.0746 9.46466 29.1579 16.2696 29.8571C23.0745 30.5563 29.1578 25.6066 29.857 18.8017Z"/>
</mask>
<path d="M0.381379 15.7731C1.35484 6.29903 9.8242 -0.592037 19.2982 0.381426C28.7723 1.35489 35.6633 9.82425 34.6899 19.2983C33.7164 28.7723 25.247 35.6634 15.773 34.6899C6.29898 33.7164 -0.592084 25.2471 0.381379 15.7731ZM29.857 18.8017C30.5562 11.9968 25.6066 5.91347 18.8017 5.21426C11.9967 4.51505 5.91343 9.46471 5.21422 16.2696C4.51501 23.0746 9.46466 29.1579 16.2696 29.8571C23.0745 30.5563 29.1578 25.6066 29.857 18.8017Z" fill="#26B6EB" stroke="black" stroke-width="2" mask="url(#path-1-inside-1_610_242)"/>
</g>
</svg>
