<svg width="20" height="25" viewBox="0 0 20 25" fill="none" xmlns="http://www.w3.org/2000/svg">
<g id="Ellipse 12">
<mask id="path-1-inside-1_610_235" fill="white">
<path d="M0.61977 2.8392C0.446687 1.48961 1.40363 0.236628 2.76412 0.257472C5.02417 0.292098 7.26372 0.770897 9.35259 1.67545C12.1981 2.90765 14.6587 4.88429 16.4753 7.39726C18.2919 9.91022 19.3974 12.8665 19.6752 15.9549C19.8792 18.222 19.6316 20.4988 18.9558 22.6557C18.549 23.9541 17.0592 24.4699 15.8319 23.8824V23.8824C14.6046 23.2949 14.113 21.8247 14.445 20.5051C14.7811 19.169 14.8922 17.7802 14.7677 16.3964C14.5692 14.1905 13.7796 12.0789 12.4821 10.284C11.1845 8.48902 9.42701 7.07717 7.39457 6.19705C6.11958 5.64494 4.76599 5.31489 3.39183 5.21513C2.03475 5.1166 0.792854 4.1888 0.61977 2.8392V2.8392Z"/>
</mask>
<path d="M0.61977 2.8392C0.446687 1.48961 1.40363 0.236628 2.76412 0.257472C5.02417 0.292098 7.26372 0.770897 9.35259 1.67545C12.1981 2.90765 14.6587 4.88429 16.4753 7.39726C18.2919 9.91022 19.3974 12.8665 19.6752 15.9549C19.8792 18.222 19.6316 20.4988 18.9558 22.6557C18.549 23.9541 17.0592 24.4699 15.8319 23.8824V23.8824C14.6046 23.2949 14.113 21.8247 14.445 20.5051C14.7811 19.169 14.8922 17.7802 14.7677 16.3964C14.5692 14.1905 13.7796 12.0789 12.4821 10.284C11.1845 8.48902 9.42701 7.07717 7.39457 6.19705C6.11958 5.64494 4.76599 5.31489 3.39183 5.21513C2.03475 5.1166 0.792854 4.1888 0.61977 2.8392V2.8392Z" fill="#D7D7D7" stroke="black" stroke-width="2" mask="url(#path-1-inside-1_610_235)"/>
</g>
</svg>
