<svg width="35" height="35" viewBox="0 0 35 35" fill="none" xmlns="http://www.w3.org/2000/svg">
<g id="Ellipse 11">
<mask id="path-1-inside-1_610_234" fill="white">
<path d="M0.409211 15.6962C1.38267 6.22213 9.85204 -0.668941 19.3261 0.304522C28.8001 1.27799 35.6912 9.74735 34.7177 19.2214C33.7442 28.6954 25.2749 35.5865 15.8008 34.613C6.32681 33.6395 -0.564252 25.1702 0.409211 15.6962ZM29.8849 18.7248C30.5841 11.9199 25.6344 5.83657 18.8295 5.13736C12.0246 4.43815 5.94126 9.38781 5.24205 16.1927C4.54284 22.9977 9.49249 29.081 16.2974 29.7802C23.1023 30.4794 29.1856 25.5297 29.8849 18.7248Z"/>
</mask>
<path d="M0.409211 15.6962C1.38267 6.22213 9.85204 -0.668941 19.3261 0.304522C28.8001 1.27799 35.6912 9.74735 34.7177 19.2214C33.7442 28.6954 25.2749 35.5865 15.8008 34.613C6.32681 33.6395 -0.564252 25.1702 0.409211 15.6962ZM29.8849 18.7248C30.5841 11.9199 25.6344 5.83657 18.8295 5.13736C12.0246 4.43815 5.94126 9.38781 5.24205 16.1927C4.54284 22.9977 9.49249 29.081 16.2974 29.7802C23.1023 30.4794 29.1856 25.5297 29.8849 18.7248Z" fill="#26B6EB" stroke="black" stroke-width="2" mask="url(#path-1-inside-1_610_234)"/>
</g>
</svg>
