<svg width="18" height="34" viewBox="0 0 18 34" fill="none" xmlns="http://www.w3.org/2000/svg">
<g id="Ellipse 4">
<mask id="path-1-inside-1_610_201" fill="white">
<path d="M0.0248425 2.67542C0.112323 1.25786 1.33933 0.161159 2.72999 0.449587C5.71287 1.06825 8.50471 2.43728 10.8325 4.44552C13.8127 7.01654 15.868 10.4935 16.6837 14.3439C17.4994 18.1944 17.0306 22.2061 15.3491 25.7647C14.0356 28.5444 12.0388 30.9279 9.56303 32.703C8.4088 33.5306 6.84249 33.0256 6.18769 31.7653V31.7653C5.53289 30.505 6.04567 28.9703 7.15074 28.0782C8.64974 26.8679 9.86647 25.329 10.6989 23.5674C11.9 21.0256 12.2348 18.1601 11.6522 15.4099C11.0695 12.6596 9.60148 10.1762 7.47287 8.33978C5.99757 7.06702 4.26133 6.15371 2.40035 5.65533C1.02844 5.28792 -0.062638 4.09298 0.0248425 2.67542V2.67542Z"/>
</mask>
<path d="M0.0248425 2.67542C0.112323 1.25786 1.33933 0.161159 2.72999 0.449587C5.71287 1.06825 8.50471 2.43728 10.8325 4.44552C13.8127 7.01654 15.868 10.4935 16.6837 14.3439C17.4994 18.1944 17.0306 22.2061 15.3491 25.7647C14.0356 28.5444 12.0388 30.9279 9.56303 32.703C8.4088 33.5306 6.84249 33.0256 6.18769 31.7653V31.7653C5.53289 30.505 6.04567 28.9703 7.15074 28.0782C8.64974 26.8679 9.86647 25.329 10.6989 23.5674C11.9 21.0256 12.2348 18.1601 11.6522 15.4099C11.0695 12.6596 9.60148 10.1762 7.47287 8.33978C5.99757 7.06702 4.26133 6.15371 2.40035 5.65533C1.02844 5.28792 -0.062638 4.09298 0.0248425 2.67542V2.67542Z" fill="#D7D7D7" stroke="black" stroke-width="2" mask="url(#path-1-inside-1_610_201)"/>
</g>
</svg>
