<svg width="29" height="35" viewBox="0 0 29 35" fill="none" xmlns="http://www.w3.org/2000/svg">
<g id="Ellipse 7">
<mask id="path-1-inside-1_610_243" fill="white">
<path d="M9.61977 2.8392C9.44669 1.48961 10.4036 0.236632 11.7641 0.257474C13.8487 0.289408 15.9172 0.699229 17.8673 1.47404C20.5835 2.5532 22.9808 4.305 24.8341 6.56492C26.6874 8.82484 27.936 11.5187 28.4625 14.3936C28.9889 17.2685 28.7761 20.23 27.844 23C26.9118 25.7701 25.2909 28.2577 23.1334 30.2294C20.976 32.2011 18.3529 33.5921 15.5103 34.2718C12.6678 34.9515 9.69909 34.8975 6.88311 34.115C4.86131 33.5532 2.96584 32.6291 1.28607 31.3943C0.18977 30.5884 0.185037 29.0118 1.13883 28.0414V28.0414C2.09262 27.071 3.64279 27.0828 4.78333 27.8247C5.83354 28.5079 6.98591 29.0296 8.20231 29.3676C10.2137 29.9265 12.3341 29.965 14.3644 29.4795C16.3948 28.9941 18.2684 28.0005 19.8094 26.5922C21.3504 25.1839 22.5081 23.407 23.1739 21.4285C23.8398 19.4499 23.9918 17.3346 23.6157 15.2812C23.2397 13.2278 22.3479 11.3036 21.0241 9.68944C19.7003 8.07525 17.988 6.824 16.048 6.05319C14.8747 5.58704 13.6414 5.30585 12.3918 5.21513C11.0348 5.11661 9.79285 4.1888 9.61977 2.8392V2.8392Z"/>
</mask>
<path d="M9.61977 2.8392C9.44669 1.48961 10.4036 0.236632 11.7641 0.257474C13.8487 0.289408 15.9172 0.699229 17.8673 1.47404C20.5835 2.5532 22.9808 4.305 24.8341 6.56492C26.6874 8.82484 27.936 11.5187 28.4625 14.3936C28.9889 17.2685 28.7761 20.23 27.844 23C26.9118 25.7701 25.2909 28.2577 23.1334 30.2294C20.976 32.2011 18.3529 33.5921 15.5103 34.2718C12.6678 34.9515 9.69909 34.8975 6.88311 34.115C4.86131 33.5532 2.96584 32.6291 1.28607 31.3943C0.18977 30.5884 0.185037 29.0118 1.13883 28.0414V28.0414C2.09262 27.071 3.64279 27.0828 4.78333 27.8247C5.83354 28.5079 6.98591 29.0296 8.20231 29.3676C10.2137 29.9265 12.3341 29.965 14.3644 29.4795C16.3948 28.9941 18.2684 28.0005 19.8094 26.5922C21.3504 25.1839 22.5081 23.407 23.1739 21.4285C23.8398 19.4499 23.9918 17.3346 23.6157 15.2812C23.2397 13.2278 22.3479 11.3036 21.0241 9.68944C19.7003 8.07525 17.988 6.824 16.048 6.05319C14.8747 5.58704 13.6414 5.30585 12.3918 5.21513C11.0348 5.11661 9.79285 4.1888 9.61977 2.8392V2.8392Z" fill="#D7D7D7" stroke="black" stroke-width="2" mask="url(#path-1-inside-1_610_243)"/>
</g>
</svg>
