<svg width="37" height="37" viewBox="0 0 37 37" fill="none" xmlns="http://www.w3.org/2000/svg">
<g id="Ellipse 3">
<mask id="path-1-inside-1_610_200" fill="white">
<path d="M0.0958491 18.9554C-0.390647 9.02623 7.26419 0.582628 17.1934 0.0961322C27.1226 -0.390364 35.5662 7.26447 36.0527 17.1937C36.5392 27.1229 28.8844 35.5665 18.9552 36.053C9.02595 36.5395 0.582345 28.8847 0.0958491 18.9554ZM30.9877 17.4419C30.6382 10.31 24.5734 4.81173 17.4416 5.16117C10.3097 5.5106 4.81145 11.5754 5.16088 18.7073C5.51032 25.8391 11.5751 31.3374 18.707 30.988C25.8389 30.6385 31.3371 24.5737 30.9877 17.4419Z"/>
</mask>
<path d="M0.0958491 18.9554C-0.390647 9.02623 7.26419 0.582628 17.1934 0.0961322C27.1226 -0.390364 35.5662 7.26447 36.0527 17.1937C36.5392 27.1229 28.8844 35.5665 18.9552 36.053C9.02595 36.5395 0.582345 28.8847 0.0958491 18.9554ZM30.9877 17.4419C30.6382 10.31 24.5734 4.81173 17.4416 5.16117C10.3097 5.5106 4.81145 11.5754 5.16088 18.7073C5.51032 25.8391 11.5751 31.3374 18.707 30.988C25.8389 30.6385 31.3371 24.5737 30.9877 17.4419Z" fill="#26B6EB" stroke="black" stroke-width="2" mask="url(#path-1-inside-1_610_200)"/>
</g>
</svg>
