<svg width="35" height="36" viewBox="0 0 35 36" fill="none" xmlns="http://www.w3.org/2000/svg">
<g id="Ellipse 9">
<mask id="path-1-inside-1_610_232" fill="white">
<path d="M15.0739 2.98161C14.8966 1.5991 15.8769 0.31555 17.2706 0.336901C19.7815 0.375369 22.2655 0.949021 24.553 2.03099C27.6043 3.47419 30.1783 5.76138 31.9702 8.62184C33.7622 11.4823 34.6971 14.7963 34.6643 18.1715C34.6316 21.5467 33.6325 24.8419 31.7853 27.667C29.9382 30.4922 27.3203 32.7289 24.2416 34.1126C21.1628 35.4963 17.7521 35.969 14.4131 35.4747C11.0741 34.9804 7.94661 33.5399 5.4008 31.3235C3.49222 29.6619 1.97048 27.6165 0.928208 25.3318C0.349702 24.0637 1.13234 22.6509 2.46991 22.2589V22.2589C3.80747 21.8668 5.18834 22.6511 5.83834 23.8841C6.56146 25.2557 7.53469 26.4889 8.71508 27.5165C10.5335 29.0996 12.7673 30.1285 15.1523 30.4816C17.5372 30.8347 19.9734 30.497 22.1724 29.5087C24.3715 28.5204 26.2413 26.9227 27.5607 24.9048C28.88 22.8869 29.5936 20.5333 29.617 18.1225C29.6404 15.7117 28.9727 13.3446 27.6927 11.3015C26.4128 9.25836 24.5743 7.6247 22.3949 6.59386C20.9801 5.92471 19.4601 5.52776 17.9136 5.41548C16.5234 5.31455 15.2512 4.36412 15.0739 2.98161V2.98161Z"/>
</mask>
<path d="M15.0739 2.98161C14.8966 1.5991 15.8769 0.31555 17.2706 0.336901C19.7815 0.375369 22.2655 0.949021 24.553 2.03099C27.6043 3.47419 30.1783 5.76138 31.9702 8.62184C33.7622 11.4823 34.6971 14.7963 34.6643 18.1715C34.6316 21.5467 33.6325 24.8419 31.7853 27.667C29.9382 30.4922 27.3203 32.7289 24.2416 34.1126C21.1628 35.4963 17.7521 35.969 14.4131 35.4747C11.0741 34.9804 7.94661 33.5399 5.4008 31.3235C3.49222 29.6619 1.97048 27.6165 0.928208 25.3318C0.349702 24.0637 1.13234 22.6509 2.46991 22.2589V22.2589C3.80747 21.8668 5.18834 22.6511 5.83834 23.8841C6.56146 25.2557 7.53469 26.4889 8.71508 27.5165C10.5335 29.0996 12.7673 30.1285 15.1523 30.4816C17.5372 30.8347 19.9734 30.497 22.1724 29.5087C24.3715 28.5204 26.2413 26.9227 27.5607 24.9048C28.88 22.8869 29.5936 20.5333 29.617 18.1225C29.6404 15.7117 28.9727 13.3446 27.6927 11.3015C26.4128 9.25836 24.5743 7.6247 22.3949 6.59386C20.9801 5.92471 19.4601 5.52776 17.9136 5.41548C16.5234 5.31455 15.2512 4.36412 15.0739 2.98161V2.98161Z" fill="#D7D7D7" stroke="black" stroke-width="2" mask="url(#path-1-inside-1_610_232)"/>
</g>
</svg>
